<svg width="179" height="42" viewBox="0 0 179 42" fill="none" xmlns="http://www.w3.org/2000/svg">
<path d="M21.8468 23.9423C21.8468 20.5496 20.7424 17.9225 18.5338 16.0608C16.6339 14.5338 14.2616 13.7136 11.8228 13.7407H11.676C11.3751 13.7414 11.0746 13.7635 10.7768 13.8069C10.1084 13.8917 9.45324 14.06 8.82684 14.3078L5.78839 15.5126C5.69005 15.5508 5.58491 15.5689 5.47942 15.5658C5.37392 15.5626 5.27023 15.5382 5.17437 15.4941C5.07851 15.45 4.99251 15.3871 4.92155 15.3091C4.85059 15.2311 4.79593 15.1396 4.76117 15.0401C4.73567 14.959 4.72309 14.8745 4.7235 14.7896V12.4791C4.71145 12.2677 4.64967 12.0622 4.54348 11.879C4.5089 11.8191 4.46932 11.7622 4.42516 11.7089C4.33698 11.5931 4.22337 11.499 4.09284 11.4343C3.96231 11.3695 3.81846 11.3358 3.67271 11.3356H1.03175C0.887993 11.3367 0.746375 11.3704 0.617627 11.4343C0.488879 11.4981 0.376468 11.5905 0.288778 11.7042C0.118587 11.9265 0.0195635 12.1949 0.00476154 12.4743V12.4743V14.785C0.00427621 15.6826 0.224126 16.5666 0.644896 17.3598C1.06567 18.1531 1.67459 18.8313 2.41855 19.3353C2.52268 19.4061 2.62687 19.4722 2.731 19.5289C3.06177 19.7264 3.41422 19.885 3.78156 20.0015C4.04297 20.0925 4.31243 20.159 4.58623 20.2C4.8984 20.2578 5.21531 20.2862 5.5328 20.285C6.23007 20.2856 6.92088 20.1525 7.56783 19.8928L10.6063 18.6879C10.6726 18.66 10.7406 18.6364 10.8099 18.617C11.0033 18.5516 11.2031 18.5073 11.4061 18.4847C12.8861 18.4958 14.3177 19.0128 15.4623 19.9495C16.0222 20.4752 16.4544 21.1217 16.7259 21.8396C17.0138 22.5582 17.1647 23.3243 17.1708 24.0982C17.1708 24.8543 17.1472 25.478 17.0998 25.9883C15.2444 24.4452 12.8876 23.6334 10.4739 23.706C7.87079 23.706 5.74102 24.2888 4.08452 25.4543C2.07464 26.9002 1.06818 28.9903 1.06503 31.7245C1.02875 32.8749 1.25772 34.0183 1.73451 35.0662C2.21131 36.1141 2.92296 37.0385 3.8146 37.768C4.63971 38.4554 5.58931 38.9783 6.61178 39.3084C7.62741 39.6507 8.692 39.8263 9.76393 39.8282C10.7362 39.8377 11.7053 39.7186 12.6462 39.4738C13.7951 39.1952 14.8727 38.6786 15.8087 37.9573C16.7447 37.2361 17.5183 36.3264 18.0794 35.2873C18.2451 36.1331 18.3683 36.9128 18.4582 37.6499C18.5008 37.9192 18.5339 38.1224 18.5481 38.3256C18.5729 38.5444 18.6404 38.7563 18.7468 38.9493C18.8652 39.1761 19.22 39.2895 19.7879 39.2895H21.9415C22.0999 39.3112 22.2611 39.2957 22.4125 39.2442C22.5638 39.1926 22.7013 39.1066 22.8134 38.9928C22.9256 38.879 23.0095 38.7406 23.0586 38.5887C23.1078 38.4368 23.1206 38.2755 23.0963 38.1177C23.0363 36.0481 22.3785 33.2272 21.1227 29.655C21.5577 27.7802 21.8002 25.8661 21.8468 23.9423V23.9423ZM14.6814 34.0445C14.1706 34.4329 13.6021 34.7391 12.9965 34.9519C12.1914 35.2112 11.3478 35.3311 10.5023 35.3062C9.50741 35.3138 8.54007 34.9802 7.76195 34.3612C7.37482 34.0497 7.06678 33.6515 6.86275 33.1988C6.64135 32.6959 6.53148 32.151 6.54084 31.6017C6.52605 31.0564 6.66013 30.5173 6.92885 30.0424C7.26754 29.5135 7.7085 29.0574 8.22576 28.7005C8.97509 28.2094 9.86304 27.9724 10.7579 28.0247C12.0204 27.9929 13.2685 28.298 14.3736 28.9084C14.8816 29.1478 15.3186 29.515 15.6414 29.974C15.9642 30.4329 16.1617 30.9678 16.2147 31.5261C16.2273 32.4082 15.7163 33.2476 14.6814 34.0445V34.0445Z" fill="#084118"/>
<path d="M40.3096 13.7359C39.5998 13.7179 38.8933 13.8397 38.2307 14.0943C37.568 14.3488 36.9621 14.7313 36.4476 15.2197C35.4568 16.2416 34.7801 17.5256 34.4976 18.9195C34.478 19.1748 34.4287 19.4268 34.3508 19.6707C34.3272 19.6707 34.3178 19.6708 34.3178 19.6283C34.1824 18.1648 33.8233 16.7306 33.2529 15.3757C33.108 15.0426 32.8643 14.762 32.5545 14.5718C32.2447 14.3817 31.8837 14.2912 31.5206 14.3125H30.3233C29.3767 14.3125 28.9034 14.8432 28.9034 15.9048C28.9555 16.4154 29.0409 16.9221 29.159 17.4216C29.3816 19.1288 29.4671 20.8512 29.4146 22.572V37.8341C29.4036 38.2136 29.5334 38.5839 29.7791 38.8738C29.9154 39.0194 30.0826 39.1327 30.2685 39.2054C30.4544 39.2782 30.6543 39.3085 30.8534 39.2942H33.4281C33.6193 39.3068 33.8108 39.2754 33.988 39.2025C34.1652 39.1296 34.3235 39.0172 34.4504 38.8738C34.6911 38.5817 34.8173 38.2122 34.8054 37.8341V26.0733C34.8037 24.4389 35.2558 22.836 36.1115 21.4427C36.5171 20.7781 37.0362 20.1896 37.6451 19.7039C38.1129 19.2904 38.7061 19.0457 39.3298 19.0093C40.0655 19.0403 40.795 19.1593 41.5023 19.3637C41.8925 19.4827 42.2967 19.5494 42.7045 19.5621C43.3813 19.5621 43.7692 19.1841 43.8544 18.4328L44.2094 15.6402C44.2484 15.4493 44.2342 15.2514 44.1682 15.0681C44.1023 14.8848 43.9872 14.7231 43.8355 14.6007C43.1855 14.0211 42.0103 13.7328 40.3096 13.7359Z" fill="#084118"/>
<path d="M62.3362 13.736C58.8181 13.736 56.1123 15.0354 54.2192 17.6342V1.44116C54.2291 1.07077 54.1067 0.708995 53.8737 0.420572C53.774 0.289401 53.6453 0.183117 53.4975 0.110139C53.3496 0.0371608 53.1868 -0.000465619 53.0219 8.57122e-05H50.0024C49.8386 -0.00160634 49.6767 0.0356275 49.5302 0.108755C49.3838 0.181882 49.2567 0.28875 49.1598 0.420572C48.9351 0.712646 48.8183 1.07304 48.8286 1.44116V37.5649C48.8286 38.7037 49.2688 39.2706 50.1586 39.2706H51.3984C52.5375 39.2706 53.1371 38.8139 53.197 37.9004C53.197 37.4846 53.2443 37.0593 53.2964 36.6152C53.3485 36.171 53.391 35.7221 53.4194 35.2637C54.2058 36.7112 55.3962 37.8996 56.846 38.6847C58.2647 39.4323 59.8469 39.8172 61.4511 39.8046C64.5148 39.8046 67.039 38.5446 69.0236 36.0245C71.0083 33.5044 72.021 30.1306 72.0621 25.9032C72.0621 22.3121 71.2859 19.4392 69.7335 17.2846C68.0266 14.9157 65.5608 13.7328 62.3362 13.736ZM65.1759 32.4949C64.7288 33.3533 64.0465 34.0671 63.2086 34.5532C62.3706 35.0393 61.4115 35.2775 60.443 35.2401C58.5499 35.2401 56.9723 34.355 55.7102 32.5846C55.1199 31.7402 54.6648 30.8092 54.3613 29.8251C54.0394 28.7927 53.8797 27.7168 53.888 26.6356C53.8786 25.5621 54.0384 24.4938 54.3613 23.4698C54.6653 22.5028 55.1468 21.6008 55.7811 20.8096C56.3827 20.0596 57.1358 19.4445 57.9913 19.0046C58.87 18.5569 59.8447 18.3297 60.8311 18.343C61.7326 18.3138 62.6264 18.5189 63.4246 18.9384C65.4692 20.0787 66.49 22.6334 66.4869 26.6025C66.4711 29.0029 66.0341 30.9671 65.1759 32.4949Z" fill="#084118"/>
<path d="M118.406 13.7359C117.696 13.7179 116.99 13.8397 116.327 14.0943C115.665 14.3488 115.059 14.7313 114.544 15.2197C113.553 16.2416 112.877 17.5256 112.594 18.9195C112.575 19.1748 112.525 19.4268 112.447 19.6707C112.424 19.6707 112.414 19.6708 112.414 19.6283C112.279 18.1648 111.92 16.7306 111.349 15.3757C111.205 15.0426 110.961 14.762 110.651 14.5718C110.341 14.3817 109.98 14.2912 109.617 14.3125H108.42C107.473 14.3125 107 14.8432 107 15.9048C107.052 16.4154 107.137 16.9221 107.256 17.4216C107.478 19.1288 107.564 20.8512 107.511 22.572V37.8341C107.5 38.2136 107.63 38.5839 107.876 38.8738C108.012 39.0194 108.179 39.1327 108.365 39.2054C108.551 39.2782 108.751 39.3085 108.95 39.2942H111.525C111.716 39.3068 111.907 39.2754 112.085 39.2025C112.262 39.1296 112.42 39.0172 112.547 38.8738C112.788 38.5817 112.914 38.2122 112.902 37.8341V26.0733C112.9 24.4389 113.352 22.836 114.208 21.4427C114.614 20.7781 115.133 20.1896 115.742 19.7039C116.209 19.2904 116.803 19.0457 117.426 19.0093C118.162 19.0403 118.892 19.1593 119.599 19.3637C119.989 19.4827 120.393 19.5494 120.801 19.5621C121.478 19.5621 121.866 19.1841 121.951 18.4328L122.306 15.6402C122.345 15.4493 122.331 15.2514 122.265 15.0681C122.199 14.8848 122.084 14.7231 121.932 14.6007C121.282 14.0211 120.107 13.7328 118.406 13.7359Z" fill="#084118"/>
<path d="M145.687 34.1132C145.584 33.8699 145.412 33.6626 145.191 33.5171C144.97 33.3716 144.712 33.2946 144.447 33.2957C144.115 33.3201 143.799 33.4436 143.538 33.6501C141.831 34.8751 139.782 35.536 137.679 35.5402C135.373 35.5402 133.546 34.8913 132.199 33.5935C131.552 32.9616 131.046 32.2007 130.714 31.3605C130.382 30.5202 130.232 29.6195 130.272 28.7171V28.2966C132.272 28.882 134.341 29.1998 136.425 29.2417C139.309 29.2417 141.631 28.673 143.392 27.5358C144.353 26.9482 145.139 26.1149 145.669 25.1222C146.199 24.1294 146.454 23.0133 146.407 21.8893C146.407 19.3692 145.548 17.4131 143.832 16.0207C142.977 15.3329 141.994 14.8206 140.94 14.5133C139.619 14.1462 138.251 13.9744 136.879 14.0031C135.298 14.0021 133.727 14.264 132.232 14.778C127.407 16.4475 124.997 20.7001 125 27.5358C125 31.4356 126.175 34.529 128.526 36.8159C129.633 37.9041 130.961 38.7421 132.421 39.2731C133.847 39.822 135.361 40.1086 136.889 40.1189C138.32 40.1226 139.748 39.9736 141.148 39.6747C141.821 39.5283 142.485 39.3438 143.136 39.1219C143.726 38.9232 144.294 38.6635 144.831 38.347C145.278 38.085 145.679 37.7514 146.018 37.3594C146.296 37.0754 146.464 36.7019 146.492 36.3057C146.494 35.9802 146.426 35.6579 146.293 35.3607L145.687 34.1132ZM131.266 21.6199C132.352 19.6448 134.245 18.6557 136.946 18.6525C139.785 18.6525 141.205 19.7094 141.205 21.8231C141.205 24.0282 139.262 25.1307 135.374 25.1307C133.703 25.1952 132.039 24.8718 130.514 24.1857C130.597 23.29 130.852 22.4188 131.266 21.6199V21.6199Z" fill="#084118"/>
<path d="M176.73 36.6648L175.234 36.2207C174.697 36.0585 174.201 35.7841 173.778 35.4159C173.356 35.0477 173.016 34.5941 172.783 34.0849L172.144 32.6956L172.068 32.5303C171.822 31.7144 171.538 30.8466 171.216 29.9268C171.653 28.0584 171.898 26.1507 171.95 24.233C171.95 20.8403 170.845 18.2132 168.637 16.3515C166.772 14.8016 164.42 14.0266 161.58 14.0266C158.46 14.0266 155.967 14.6016 154.102 15.7514C153.127 16.3562 152.64 16.9862 152.64 17.6414C152.722 18.2502 152.924 18.8364 153.236 19.366C153.61 20.1504 153.993 20.5426 154.391 20.5426C154.725 20.5246 155.05 20.4257 155.337 20.2544C157.02 19.3115 158.912 18.8016 160.842 18.7707C162.855 18.7707 164.421 19.2653 165.541 20.2544C166.104 20.7776 166.537 21.4248 166.805 22.1445C167.095 22.8626 167.246 23.629 167.25 24.4031C167.25 25.1591 167.25 25.7828 167.184 26.2932C165.328 24.7512 162.971 23.9396 160.558 24.0109C157.955 24.0109 155.825 24.5936 154.168 25.7592C152.159 27.2051 151.154 29.2951 151.154 32.0294C151.117 33.1798 151.347 34.3232 151.823 35.371C152.3 36.4189 153.012 37.3433 153.903 38.0729C154.729 38.7602 155.678 39.2832 156.701 39.6133C157.715 39.9556 158.778 40.131 159.848 40.133C160.822 40.1425 161.793 40.0234 162.735 39.7786C163.884 39.4995 164.961 38.9826 165.897 38.2614C166.833 37.5402 167.607 36.6309 168.168 35.5922V35.4173L168.471 36.0742C168.986 37.1924 169.734 38.1886 170.664 38.9967C171.594 39.8048 172.686 40.4063 173.867 40.7615L175.362 41.2103C175.583 41.2756 175.813 41.309 176.044 41.3095C176.612 41.3091 177.161 41.1047 177.59 40.7337C178.02 40.3626 178.301 39.8496 178.383 39.2884C178.465 38.7273 178.343 38.1554 178.037 37.6772C177.732 37.199 177.265 36.8464 176.72 36.6837L176.73 36.6648ZM164.784 34.3352C164.273 34.7236 163.705 35.0297 163.099 35.2425C162.293 35.5019 161.447 35.6218 160.6 35.5969C159.605 35.6044 158.638 35.2709 157.86 34.6519C157.476 34.3388 157.17 33.9409 156.966 33.4895C156.742 32.9873 156.632 32.4419 156.644 31.8924C156.629 31.3471 156.763 30.808 157.032 30.3331C157.369 29.8032 157.81 29.3469 158.329 28.9912C159.077 28.5008 159.963 28.2638 160.856 28.3154C162.119 28.2822 163.367 28.5874 164.472 29.1991C164.981 29.4369 165.419 29.8037 165.742 30.2629C166.065 30.7222 166.262 31.258 166.313 31.8168C166.318 32.6957 165.811 33.5367 164.789 34.3352H164.784Z" fill="#084118"/>
<path d="M88.0499 10.537C88.1093 10.6359 88.1942 10.7171 88.2958 10.772C88.3974 10.8269 88.5118 10.8535 88.6272 10.849C88.8623 10.8548 89.0942 10.7924 89.2946 10.6693L97.3688 5.76471C97.6274 5.62741 97.8443 5.42354 97.9974 5.17429C98.1505 4.92505 98.2342 4.6395 98.2396 4.34716C98.2492 4.09422 98.1611 3.84728 97.9935 3.65731L96.3229 1.54519C96.182 1.38031 96.0036 1.25142 95.8027 1.16923C95.6018 1.08705 95.3842 1.05394 95.1679 1.07268C94.7675 1.10604 94.3943 1.28807 94.1219 1.58291L87.2499 7.8248C87.1326 7.90571 87.0328 8.00934 86.9564 8.12947C86.88 8.24959 86.8285 8.38387 86.805 8.52423C86.8027 8.71012 86.8555 8.8925 86.9566 9.04865L88.0499 10.537Z" fill="#084118"/>
<path d="M89.7394 13.6935C86.1519 13.6935 83.178 14.8857 80.8179 17.2703C79.6646 18.4526 78.7601 19.8537 78.158 21.3907C77.5055 23.0795 77.1842 24.8777 77.2114 26.6876C77.2114 30.5811 78.3537 33.7312 80.6381 36.1379C82.9351 38.6139 85.9752 39.8502 89.7583 39.847C91.4156 39.8954 93.0647 39.5987 94.6007 38.9755C96.1367 38.3523 97.526 37.4165 98.6798 36.2276C101.1 33.7706 102.308 30.6015 102.305 26.7206C102.305 22.7074 101.237 19.5573 99.1008 17.2703C96.8638 14.8857 93.7433 13.6935 89.7394 13.6935ZM95.1253 32.7735C93.9231 34.4305 92.1578 35.259 89.8293 35.259C88.7997 35.3058 87.7744 35.0993 86.8435 34.6577C85.9126 34.2161 85.1046 33.5529 84.4907 32.7263C83.8993 31.9359 83.4581 31.0438 83.1892 30.0944C82.897 29.092 82.7502 28.0529 82.7536 27.0089C82.754 25.9393 82.8812 24.8734 83.1323 23.8336C83.3648 22.8347 83.7752 21.8856 84.344 21.0316C84.8987 20.2138 85.6379 19.5372 86.5022 19.0564C87.5199 18.5597 88.6389 18.3043 89.7717 18.3101C90.9046 18.3158 92.0207 18.5825 93.0334 19.0896C95.4945 20.5102 96.7249 23.0949 96.7249 26.8435C96.7249 29.3446 96.1917 31.3213 95.1253 32.7735V32.7735Z" fill="#084118"/>
</svg>
