<svg width="1572" height="185" viewBox="0 0 1572 185" fill="none" xmlns="http://www.w3.org/2000/svg">
<rect x="1079" width="493" height="185" fill="url(#paint0_linear)"/>
<rect x="1079" width="493" height="185" fill="url(#paint1_linear)"/>
<rect width="493" height="185" fill="url(#paint2_linear)"/>
<rect width="493" height="185" fill="url(#paint3_linear)"/>
<path d="M132.854 51.0712L128.062 89.2071H118L122.839 51.024L132.854 51.0712ZM139.466 51.024L134.626 89.2071H141.622L146.413 51.0712L139.466 51.024ZM152.451 51.024L147.611 89.2071H151.588L156.38 51.0712L152.451 51.024Z" fill="white"/>
<path d="M157.228 89.1556H167.524C168.064 84.6069 168.577 80.4863 169.01 76.9009L169.982 69.1948H170.712L173.684 77.4895C175.09 81.4228 176.63 85.5969 177.9 89.1556H185.223C186.33 85.5702 187.546 81.5298 188.762 77.4628L191.248 69.1948H191.978L192.951 76.9009C193.383 80.4863 193.896 84.6069 194.464 89.1556H205.056C204.57 85.1688 204.083 81.4496 203.462 76.8206L201.76 63.8969C201.165 59.2144 200.652 55.2009 200.057 51H188.979C187.6 54.9601 186.466 58.0371 185.25 61.4085L181.71 71.2819H181.007L177.224 61.4085C175.927 58.0371 174.738 54.8263 173.279 51H162.038C161.498 55.2544 161.011 59.2947 160.417 63.8969L158.796 76.8206C158.201 81.4228 157.715 85.3294 157.228 89.1556Z" fill="white"/>
<path d="M234.471 89.1556H243.659C242.335 85.0885 240.822 80.4863 239.416 76.2587L235.12 63.121C233.58 58.492 232.418 54.9868 231.121 51H219.664L215.665 63.121L211.314 76.2319L207.045 89.1556H215.962L218.313 81.182H232.175C232.931 83.8042 233.742 86.5602 234.471 89.1556ZM225.635 58.4652L230.283 74.5998H220.231L224.987 58.4652H225.635Z" fill="white"/>
<path d="M247.969 89.1556H260.507C275.287 89.1556 280.692 80.7004 280.692 69.944C280.692 57.9568 273.963 51 262.155 51C257.264 51 252.697 51 247.969 51V89.1556ZM254.319 84.0183V56.1374H261.047C270.099 56.1374 274.071 61.5691 274.071 69.837C274.071 77.9444 270.558 84.0183 260.534 84.0183H254.319Z" fill="white"/>
<path d="M305.165 78.2387L300.598 72.593C308.002 71.5762 310.596 66.867 310.596 61.3282C310.596 53.863 306.192 51 297.383 51C292.005 51 287.439 51 284.358 51V89.1556H289.141V73.6633H296.005L301.058 80.1117C303.354 82.9747 305.678 85.9448 308.245 89.1556H313.974C311.569 86.2123 307.975 81.7171 305.165 78.2387ZM289.141 55.0136H297.221C300.868 55.0136 305.543 55.4417 305.543 61.8099C305.543 67.5359 302.382 69.6765 295.626 69.6765H289.141V55.0136Z" fill="white"/>
<path d="M317.455 89.1556H320.184V51H317.455V89.1556Z" fill="white"/>
<path d="M328.817 89.1556H340.22C354.596 89.1556 360 80.6736 360 69.8905C360 58.0906 353.326 51 341.355 51C337.275 51 333.843 51 328.817 51V89.1556ZM331.52 86.7742V53.3814H340.923C352.164 53.3814 357.19 59.8566 357.19 69.837C357.19 79.4963 352.785 86.7742 340.247 86.7742H331.52Z" fill="white"/>
<path d="M162.051 140H165.688C167.913 137.844 169.971 134.883 169.971 129.789V98.7063H166.621V129.434C166.573 134.267 164.899 136.991 162.051 140Z" fill="white"/>
<path d="M194.432 133.011C205.103 133.011 211.395 125.548 211.395 115.551C211.395 105.861 205.39 98.0903 194.288 98.0903C183.331 98.0903 177.11 105.743 177.11 115.574C177.11 124.956 182.828 133.011 194.432 133.011ZM194.312 129.315C185.604 129.315 181.608 122.848 181.608 115.551C181.608 108.278 185.771 101.786 194.312 101.786C202.566 101.786 206.897 107.875 206.897 115.551C206.897 122.705 203.021 129.315 194.312 129.315Z" fill="white"/>
<path d="M226.319 132.49H232.205C233.425 129.078 234.908 125.075 236.057 121.805L239.861 111.168C241.177 107.496 242.876 102.757 244.311 98.7063H239.67C237.899 103.729 235.985 109.201 234.334 114.129L229.477 128.06H229.071L224.262 114.177C222.587 109.367 220.577 103.563 218.903 98.7063H214.094C215.577 102.757 217.3 107.543 218.615 111.168L222.467 121.781C223.64 125.027 225.123 129.126 226.319 132.49Z" fill="white"/>
<path d="M255.916 126.97V118.038H270.702V112.803H255.916V104.226H271.515V98.7063H249.36V132.49H271.682V126.97H255.916Z" fill="white"/>
<path d="M277.818 132.49H284.111V109.865H284.613L290.833 118.702C294.614 124.032 297.652 128.368 300.547 132.49H306.361V98.7063H300.045V121.237H299.542L293.393 112.471C290.259 108.064 287.221 103.658 283.704 98.7063H277.818V132.49Z" fill="white"/>
<rect x="539" width="494" height="185" fill="url(#paint4_linear)"/>
<rect x="539" width="494" height="185" fill="url(#paint5_linear)"/>
<path d="M682.424 49.0468L677.771 86.8458H668L672.699 49L682.424 49.0468ZM688.845 49L684.145 86.8458H690.939L695.591 49.0468L688.845 49ZM701.454 49L696.755 86.8458H700.617L705.269 49.0468L701.454 49Z" fill="white"/>
<path d="M706.094 87.0532H716.091C716.616 82.5447 717.114 78.4605 717.534 74.9068L718.479 67.2688H719.187L722.074 75.4902C723.438 79.3888 724.934 83.526 726.167 87.0532H733.278C734.354 83.4995 735.535 79.4948 736.716 75.4637L739.13 67.2688H739.838L740.783 74.9068C741.203 78.4605 741.701 82.5447 742.252 87.0532H752.538C752.066 83.1017 751.593 79.4153 750.99 74.8272L749.337 62.0177C748.76 57.3766 748.261 53.3985 747.684 49.2347H736.925C735.587 53.1598 734.485 56.2096 733.304 59.5513L729.867 69.3374H729.185L725.511 59.5513C724.252 56.2096 723.097 53.0272 721.68 49.2347H710.764C710.24 53.4515 709.767 57.4561 709.19 62.0177L707.616 74.8272C707.038 79.3888 706.566 83.2608 706.094 87.0532Z" fill="white"/>
<path d="M781.103 87.0532H790.024C788.738 83.0221 787.269 78.4605 785.904 74.2703L781.732 61.2486C780.237 56.6605 779.108 53.1863 777.849 49.2347H766.723L762.84 61.2486L758.615 74.2437L754.469 87.0532H763.128L765.411 79.1501H778.872C779.607 81.7491 780.394 84.4807 781.103 87.0532ZM772.522 56.634L777.035 72.626H767.274L771.892 56.634H772.522Z" fill="white"/>
<path d="M794.209 87.0532H806.384C820.738 87.0532 825.986 78.6727 825.986 68.0114C825.986 56.1301 819.452 49.2347 807.985 49.2347C803.236 49.2347 798.801 49.2347 794.209 49.2347V87.0532ZM800.376 81.9613V54.3267H806.909C815.7 54.3267 819.557 59.7104 819.557 67.9053C819.557 75.9411 816.146 81.9613 806.411 81.9613H800.376Z" fill="white"/>
<path d="M849.751 76.2328L845.316 70.6369C852.506 69.6291 855.025 64.9615 855.025 59.4717C855.025 52.0724 850.748 49.2347 842.194 49.2347C836.972 49.2347 832.538 49.2347 829.546 49.2347V87.0532H834.191V71.6977H840.856L845.763 78.0892C847.993 80.927 850.25 83.8708 852.742 87.0532H858.305C855.97 84.136 852.48 79.6805 849.751 76.2328ZM834.191 53.2128H842.036C845.579 53.2128 850.118 53.6371 850.118 59.9491C850.118 65.6245 847.048 67.7462 840.488 67.7462H834.191V53.2128Z" fill="white"/>
<path d="M861.686 87.0532H864.336V49.2347H861.686V87.0532Z" fill="white"/>
<path d="M872.719 87.0532H883.793C897.752 87.0532 903 78.6462 903 67.9583C903 56.2627 896.519 49.2347 884.895 49.2347C880.932 49.2347 877.6 49.2347 872.719 49.2347V87.0532ZM875.343 84.6929V51.595H884.475C895.39 51.595 900.271 58.0131 900.271 67.9053C900.271 77.4793 895.994 84.6929 883.819 84.6929H875.343Z" fill="white"/>
<path d="M675.275 127.729V115.773H690.341V113.143H675.275V101.65H691.26V98.932H672.258V130.447H691.282V127.729H675.275Z" fill="white"/>
<path d="M697.001 130.447H699.997C700.696 124.547 701.33 119.176 701.899 114.557L703.08 104.612H703.32L707.694 115.419C709.727 120.458 712.089 126.204 713.816 130.447H715.937C717.774 125.939 719.939 120.546 721.994 115.353L726.28 104.612H726.521L727.723 114.557C728.27 119.176 728.904 124.547 729.626 130.447H732.556C732.162 126.933 731.768 123.817 731.331 119.994L730.063 109.54C729.582 105.673 729.21 102.534 728.773 98.932H725.69L714.997 125.32H714.735L709.465 112.369C707.65 107.993 705.9 103.662 703.976 98.932H700.893C700.456 102.579 700.062 105.739 699.581 109.54L698.291 119.994C697.81 123.839 697.416 127.022 697.001 130.447Z" fill="white"/>
<path d="M750.751 98.932C745.918 98.932 742.114 98.932 739.73 98.932V130.447H743.622V117.894H749.92C758.492 117.894 761.291 113.717 761.291 107.949C761.291 101.695 757.858 98.932 750.751 98.932ZM749.177 114.579H743.622V102.247H750.489C753.462 102.247 757.245 102.778 757.245 107.971C757.245 112.701 754.774 114.579 749.177 114.579Z" fill="white"/>
<path d="M783.986 121.43L780.29 116.767C786.282 115.927 788.381 112.038 788.381 107.463C788.381 101.297 784.817 98.932 777.688 98.932C773.337 98.932 769.641 98.932 767.149 98.932V130.447H771.019V117.651H776.573L780.662 122.977C782.521 125.342 784.401 127.795 786.479 130.447H791.114C789.168 128.016 786.26 124.304 783.986 121.43ZM771.019 102.247H777.557C780.509 102.247 784.292 102.601 784.292 107.861C784.292 112.59 781.734 114.358 776.267 114.358H771.019V102.247Z" fill="white"/>
<path d="M801.104 126.072V116.613H815.12V112.391H801.104V103.308H815.929V98.932H796.075V130.447H816.039V126.072H801.104Z" fill="white"/>
<path d="M831.422 130.956C839.228 130.956 842.639 127.11 842.639 121.74C842.639 116.767 840.234 114.646 832.756 112.281C827.989 110.778 825.955 109.651 825.955 106.977C825.955 104.081 828.645 102.711 831.837 102.711C834.308 102.711 837.632 103.662 840.321 105.474L840.781 100.656C838.703 99.4846 834.789 98.3353 831.028 98.3353C824.053 98.3353 820.532 102.048 820.532 107.198C820.532 112.48 823.922 114.535 829.782 116.347C834.483 117.784 837.26 119.021 837.26 122.049C837.26 125.254 834.636 126.602 831.072 126.602C827.77 126.602 824.403 125.541 821.407 123.839L820.991 128.679C823.112 129.74 827.529 130.956 831.422 130.956Z" fill="white"/>
<path d="M867.93 130.447H874.249L870.707 119.795L867.121 108.944L863.775 98.932H855.86L852.492 108.944L848.862 119.773C847.747 123.154 846.435 127.066 845.298 130.447H851.442L853.607 123.42H865.787C866.508 125.74 867.23 128.171 867.93 130.447ZM859.511 104.258H859.992L864.366 118.734H855.05L859.511 104.258Z" fill="white"/>
<path d="M888.265 131C896.355 131 899.854 127.154 899.854 121.585C899.854 116.458 897.427 114.336 889.97 112.016C885.597 110.667 883.673 109.607 883.673 107.198C883.673 104.678 886.1 103.463 889.03 103.463C891.457 103.463 894.781 104.413 897.514 106.203L898.017 100.59C895.831 99.4404 891.785 98.3132 887.959 98.3132C880.787 98.3132 877.222 102.092 877.222 107.419C877.222 112.855 880.568 114.955 886.363 116.701C890.78 118.005 893.425 119.154 893.425 121.917C893.425 124.679 891.129 125.895 887.828 125.895C884.657 125.895 881.202 124.856 878.184 123.132L877.725 128.746C879.89 129.807 884.373 131 888.265 131Z" fill="white"/>
<path d="M1227.41 53.9578L1223.09 88.7405H1214L1218.37 53.9147L1227.41 53.9578ZM1233.39 53.9147L1229.02 88.7405H1235.33L1239.66 53.9578L1233.39 53.9147ZM1245.11 53.9147L1240.74 88.7405H1244.34L1248.66 53.9578L1245.11 53.9147Z" fill="white"/>
<path d="M1249.43 89H1258.73C1259.22 84.8513 1259.68 81.093 1260.07 77.8228L1260.95 70.7943H1261.61L1264.29 78.3597C1265.56 81.9471 1266.95 85.7542 1268.1 89H1274.71C1275.71 85.7298 1276.81 82.0447 1277.91 78.3353L1280.15 70.7943H1280.81L1281.69 77.8228C1282.08 81.093 1282.55 84.8513 1283.06 89H1292.63C1292.19 85.3637 1291.75 81.9715 1291.19 77.7496L1289.65 65.9622C1289.11 61.6915 1288.65 58.0308 1288.11 54.1993H1278.1C1276.86 57.8112 1275.83 60.6177 1274.74 63.6926L1271.54 72.6979H1270.91L1267.49 63.6926C1266.32 60.6177 1265.24 57.6891 1263.93 54.1993H1253.77C1253.29 58.0796 1252.85 61.7647 1252.31 65.9622L1250.84 77.7496C1250.31 81.9471 1249.87 85.5102 1249.43 89ZM1319.19 89H1327.49C1326.29 85.2905 1324.93 81.093 1323.66 77.2371L1319.78 65.2545C1318.39 61.0325 1317.34 57.8356 1316.17 54.1993H1305.82L1302.21 65.2545L1298.28 77.2127L1294.42 89H1302.47L1304.6 81.7275H1317.12C1317.8 84.1191 1318.53 86.6328 1319.19 89ZM1311.21 61.0081L1315.41 75.724H1306.33L1310.63 61.0081H1311.21ZM1331.38 89H1342.71C1356.05 89 1360.94 81.2882 1360.94 71.4776C1360.94 60.5445 1354.86 54.1993 1344.19 54.1993C1339.78 54.1993 1335.65 54.1993 1331.38 54.1993V65.8402V77.5543V89ZM1337.12 84.3144V76.3097V67.036V58.885H1343.19C1351.37 58.885 1354.96 63.8391 1354.96 71.38C1354.96 78.7746 1351.78 84.3144 1342.73 84.3144H1337.12ZM1383.04 79.043L1378.91 73.8937C1385.6 72.9663 1387.94 68.6711 1387.94 63.6194C1387.94 56.8106 1383.97 54.1993 1376.01 54.1993C1371.15 54.1993 1367.03 54.1993 1364.25 54.1993V65.8158V77.5055V89H1368.57V77.5055V74.8698H1374.77L1379.33 80.7513C1381.4 83.3626 1383.5 86.0715 1385.82 89H1390.99C1388.82 86.3155 1385.58 82.2156 1383.04 79.043ZM1368.57 66.4503V57.86H1375.86C1379.16 57.86 1383.38 58.2504 1383.38 64.0587C1383.38 69.2812 1380.52 71.2336 1374.42 71.2336H1368.57V66.4503ZM1394.14 89H1396.6V77.4323V65.8158V54.1993H1394.14V65.8158V77.4323V89ZM1404.4 89H1414.7C1427.68 89 1432.56 81.2638 1432.56 71.4288C1432.56 60.6665 1426.54 54.1993 1415.72 54.1993C1412.04 54.1993 1408.94 54.1993 1404.4 54.1993V65.8158V77.4323V89ZM1406.84 86.828V77.1639V66.0843V56.3713H1415.33C1425.49 56.3713 1430.02 62.2772 1430.02 71.38C1430.02 80.19 1426.05 86.828 1414.72 86.828H1406.84ZM1215.55 129H1218.35V119.18V104.419H1218.6L1225.47 114.094C1229.6 119.907 1232.97 124.599 1236.08 129H1238.72V119.18V109.277V99.3952H1235.92V109.277V123.851H1235.67L1228.82 114.239C1225.41 109.485 1222.01 104.627 1218.25 99.3952H1215.55V109.277V119.18V129ZM1254.93 126.446H1249.76V118.765V115.215H1254.95H1264.06V112.744H1254.99H1249.76V109.672V101.949H1254.68H1264.93V99.3952H1246.89V109.277V119.18V129H1264.95V126.446H1254.93ZM1291.42 114.135C1291.42 116.191 1291.42 118.018 1291.42 120.613V125.45C1289.51 126.01 1287.51 126.26 1285.54 126.26C1277.11 126.26 1273.37 120.924 1273.37 114.156C1273.37 106.682 1278.05 102.177 1284.65 102.177C1287.53 102.177 1290.71 102.966 1294.14 104.855L1294.47 101.243C1292.35 100.143 1288.57 98.8555 1284.42 98.8555C1275.35 98.8555 1269.49 105.208 1269.49 114.135C1269.49 122.855 1274.99 129.436 1285.27 129.436C1289.19 129.436 1293.06 128.543 1294.97 127.671C1294.97 124.806 1294.97 122.813 1294.97 120.613V114.135H1291.42ZM1314.97 129.457C1324.23 129.457 1329.69 122.917 1329.69 114.156C1329.69 105.665 1324.48 98.8555 1314.85 98.8555C1305.34 98.8555 1299.94 105.561 1299.94 114.177C1299.94 122.398 1304.91 129.457 1314.97 129.457ZM1314.87 126.218C1307.31 126.218 1303.85 120.55 1303.85 114.156C1303.85 107.783 1307.46 102.094 1314.87 102.094C1322.03 102.094 1325.79 107.43 1325.79 114.156C1325.79 120.426 1322.43 126.218 1314.87 126.218ZM1349.04 129.498C1352.28 129.498 1355.68 128.855 1358.05 127.422L1357.72 122.855C1355.14 124.723 1352.32 125.388 1349.58 125.388C1342.39 125.388 1338.78 120.301 1338.78 114.177C1338.78 107.222 1343.04 103.049 1348.96 103.049C1351.63 103.049 1354.6 103.838 1357.8 105.79L1358.21 101.181C1356.06 100.018 1352.36 98.8347 1348.5 98.8347C1339.51 98.8347 1333.7 105.229 1333.7 114.177C1333.7 123.104 1339.55 129.498 1349.04 129.498ZM1363.82 129H1368.78V119.263V109.298V99.3952H1363.82V109.298V119.263V129ZM1389.46 129.519C1399.09 129.519 1404.49 122.979 1404.49 114.177C1404.49 105.665 1399.36 98.8139 1389.29 98.8139C1379.35 98.8139 1374.14 105.582 1374.14 114.198C1374.14 122.377 1378.96 129.519 1389.46 129.519ZM1389.36 124.682C1383.15 124.682 1380.18 119.803 1380.18 114.177C1380.18 108.53 1383.29 103.651 1389.36 103.651C1395.21 103.651 1398.45 108.281 1398.45 114.177C1398.45 119.72 1395.52 124.682 1389.36 124.682ZM1418.61 129.519C1426.29 129.519 1429.61 125.907 1429.61 120.675C1429.61 115.858 1427.3 113.865 1420.23 111.686C1416.07 110.419 1414.25 109.423 1414.25 107.16C1414.25 104.793 1416.55 103.651 1419.33 103.651C1421.64 103.651 1424.79 104.544 1427.39 106.226L1427.87 100.952C1425.79 99.8727 1421.95 98.8139 1418.32 98.8139C1411.51 98.8139 1408.12 102.364 1408.12 107.367C1408.12 112.474 1411.3 114.447 1416.8 116.087C1420.99 117.312 1423.51 118.391 1423.51 120.986C1423.51 123.581 1421.33 124.723 1418.19 124.723C1415.18 124.723 1411.9 123.748 1409.04 122.128L1408.6 127.401C1410.65 128.398 1414.91 129.519 1418.61 129.519Z" fill="white"/>
<defs>
<linearGradient id="paint0_linear" x1="1079" y1="93.4737" x2="1572" y2="93.4737" gradientUnits="userSpaceOnUse">
<stop offset="0.0260417" stop-color="#3465FF"/>
<stop offset="1" stop-color="#26CBE1"/>
</linearGradient>
<linearGradient id="paint1_linear" x1="2273.08" y1="71.1692" x2="633.608" y2="263.134" gradientUnits="userSpaceOnUse">
<stop stop-color="#8F16CC"/>
<stop offset="1" stop-color="#6A37E1"/>
</linearGradient>
<linearGradient id="paint2_linear" x1="-178.091" y1="99.1427" x2="726.83" y2="80.373" gradientUnits="userSpaceOnUse">
<stop stop-color="#FF007A"/>
<stop offset="1" stop-color="#FFE600"/>
</linearGradient>
<linearGradient id="paint3_linear" x1="-178.091" y1="99.1427" x2="726.83" y2="80.373" gradientUnits="userSpaceOnUse">
<stop stop-color="#FF007A"/>
<stop offset="1" stop-color="#FFE600"/>
</linearGradient>
<linearGradient id="paint4_linear" x1="539" y1="93.4737" x2="1033" y2="93.4737" gradientUnits="userSpaceOnUse">
<stop offset="0.0260417" stop-color="#3465FF"/>
<stop offset="1" stop-color="#26CBE1"/>
</linearGradient>
<linearGradient id="paint5_linear" x1="539" y1="93.4737" x2="1033" y2="93.4737" gradientUnits="userSpaceOnUse">
<stop offset="0.0260417" stop-color="#3465FF"/>
<stop offset="1" stop-color="#26CBE1"/>
</linearGradient>
</defs>
</svg>
