<svg width="180" height="70" viewBox="0 0 180 70" fill="none" xmlns="http://www.w3.org/2000/svg">
<path d="M40.3096 13.7361C39.5998 13.7181 38.8933 13.8399 38.2307 14.0944C37.568 14.349 36.9621 14.7314 36.4476 15.2199C35.4568 16.2418 34.7801 17.5258 34.4976 18.9197C34.478 19.175 34.4287 19.427 34.3508 19.6709C34.3272 19.6709 34.3178 19.671 34.3178 19.6285C34.1824 18.165 33.8233 16.7308 33.2529 15.3759C33.108 15.0428 32.8643 14.7622 32.5545 14.572C32.2447 14.3819 31.8837 14.2914 31.5206 14.3127H30.3233C29.3767 14.3127 28.9034 14.8434 28.9034 15.905C28.9555 16.4156 29.0409 16.9222 29.159 17.4218C29.3816 19.129 29.4671 20.8514 29.4146 22.5722V37.8343C29.4036 38.2138 29.5334 38.5841 29.7791 38.8739C29.9154 39.0196 30.0826 39.1328 30.2685 39.2056C30.4544 39.2784 30.6543 39.3087 30.8534 39.2944H33.4281C33.6193 39.307 33.8108 39.2756 33.988 39.2027C34.1652 39.1298 34.3235 39.0174 34.4504 38.8739C34.6911 38.5819 34.8173 38.2123 34.8054 37.8343V26.0735C34.8037 24.4391 35.2558 22.8362 36.1115 21.4429C36.5171 20.7783 37.0362 20.1898 37.6451 19.704C38.1129 19.2905 38.7061 19.0459 39.3298 19.0095C40.0655 19.0405 40.795 19.1595 41.5023 19.3638C41.8925 19.4829 42.2967 19.5496 42.7045 19.5623C43.3813 19.5623 43.7692 19.1843 43.8544 18.433L44.2094 15.6404C44.2484 15.4495 44.2342 15.2516 44.1682 15.0683C44.1023 14.885 43.9872 14.7233 43.8355 14.6009C43.1855 14.0212 42.0103 13.733 40.3096 13.7361Z" fill="#084118"/>
<path d="M62.3362 13.7359C58.8181 13.7359 56.1123 15.0354 54.2192 17.6342V1.44113C54.2291 1.07074 54.1067 0.708964 53.8737 0.420542C53.774 0.289371 53.6453 0.183087 53.4975 0.110108C53.3496 0.0371303 53.1868 -0.000496136 53.0219 5.51946e-05H50.0024C49.8386 -0.00163686 49.6767 0.035597 49.5302 0.108724C49.3838 0.181851 49.2567 0.28872 49.1598 0.420542C48.9351 0.712615 48.8183 1.07301 48.8286 1.44113V37.5649C48.8286 38.7036 49.2688 39.2706 50.1586 39.2706H51.3984C52.5375 39.2706 53.1371 38.8139 53.197 37.9003C53.197 37.4845 53.2443 37.0593 53.2964 36.6151C53.3485 36.171 53.391 35.722 53.4194 35.2637C54.2058 36.7111 55.3962 37.8996 56.846 38.6847C58.2647 39.4323 59.8469 39.8171 61.4511 39.8046C64.5148 39.8046 67.039 38.5446 69.0236 36.0245C71.0083 33.5044 72.021 30.1306 72.0621 25.9032C72.0621 22.3121 71.2859 19.4392 69.7335 17.2845C68.0266 14.9157 65.5608 13.7328 62.3362 13.7359ZM65.1759 32.4948C64.7288 33.3533 64.0465 34.0671 63.2086 34.5532C62.3706 35.0393 61.4115 35.2775 60.443 35.24C58.5499 35.24 56.9723 34.3549 55.7102 32.5846C55.1199 31.7402 54.6648 30.8092 54.3613 29.8251C54.0394 28.7927 53.8797 27.7168 53.888 26.6356C53.8786 25.5621 54.0384 24.4938 54.3613 23.4698C54.6653 22.5028 55.1468 21.6008 55.7811 20.8096C56.3827 20.0595 57.1358 19.4445 57.9913 19.0045C58.87 18.5568 59.8447 18.3297 60.8311 18.343C61.7326 18.3137 62.6264 18.5189 63.4246 18.9383C65.4692 20.0787 66.49 22.6334 66.4869 26.6025C66.4711 29.0028 66.0341 30.967 65.1759 32.4948Z" fill="#084118"/>
<path d="M118.406 13.7361C117.696 13.7181 116.99 13.8399 116.327 14.0944C115.665 14.349 115.059 14.7314 114.544 15.2199C113.553 16.2418 112.877 17.5258 112.594 18.9197C112.575 19.175 112.525 19.427 112.447 19.6709C112.424 19.6709 112.414 19.671 112.414 19.6285C112.279 18.165 111.92 16.7308 111.349 15.3759C111.205 15.0428 110.961 14.7622 110.651 14.572C110.341 14.3819 109.98 14.2914 109.617 14.3127H108.42C107.473 14.3127 107 14.8434 107 15.905C107.052 16.4156 107.137 16.9222 107.256 17.4218C107.478 19.129 107.564 20.8514 107.511 22.5722V37.8343C107.5 38.2138 107.63 38.5841 107.876 38.8739C108.012 39.0196 108.179 39.1328 108.365 39.2056C108.551 39.2784 108.751 39.3087 108.95 39.2944H111.525C111.716 39.307 111.907 39.2756 112.085 39.2027C112.262 39.1298 112.42 39.0174 112.547 38.8739C112.788 38.5819 112.914 38.2123 112.902 37.8343V26.0735C112.9 24.4391 113.352 22.8362 114.208 21.4429C114.614 20.7783 115.133 20.1898 115.742 19.704C116.209 19.2905 116.803 19.0459 117.426 19.0095C118.162 19.0405 118.892 19.1595 119.599 19.3638C119.989 19.4829 120.393 19.5496 120.801 19.5623C121.478 19.5623 121.866 19.1843 121.951 18.433L122.306 15.6404C122.345 15.4495 122.331 15.2516 122.265 15.0683C122.199 14.885 122.084 14.7233 121.932 14.6009C121.282 14.0212 120.107 13.733 118.406 13.7361Z" fill="#084118"/>
<path d="M145.687 34.1132C145.584 33.8699 145.412 33.6626 145.191 33.5171C144.97 33.3716 144.712 33.2946 144.447 33.2957C144.115 33.3201 143.799 33.4436 143.538 33.6501C141.831 34.8751 139.782 35.536 137.679 35.5402C135.373 35.5402 133.546 34.8913 132.199 33.5935C131.552 32.9617 131.046 32.2007 130.714 31.3605C130.382 30.5202 130.232 29.6195 130.272 28.7171V28.2966C132.272 28.882 134.341 29.1998 136.425 29.2417C139.309 29.2417 141.631 28.673 143.392 27.5358C144.353 26.9482 145.139 26.1149 145.669 25.1222C146.199 24.1294 146.454 23.0133 146.407 21.8893C146.407 19.3692 145.548 17.4131 143.832 16.0207C142.977 15.3329 141.994 14.8206 140.94 14.5133C139.619 14.1462 138.251 13.9744 136.879 14.0031C135.298 14.0021 133.727 14.264 132.232 14.778C127.407 16.4475 124.997 20.7001 125 27.5358C125 31.4356 126.175 34.529 128.526 36.8159C129.633 37.9041 130.961 38.7421 132.421 39.2731C133.847 39.822 135.361 40.1086 136.889 40.1189C138.32 40.1226 139.748 39.9736 141.148 39.6747C141.821 39.5283 142.485 39.3438 143.136 39.1219C143.726 38.9232 144.294 38.6635 144.831 38.347C145.278 38.085 145.679 37.7514 146.018 37.3594C146.296 37.0754 146.464 36.7019 146.492 36.3057C146.494 35.9802 146.426 35.6579 146.293 35.3607L145.687 34.1132ZM131.266 21.6199C132.352 19.6448 134.245 18.6557 136.946 18.6525C139.785 18.6525 141.205 19.7094 141.205 21.8231C141.205 24.0282 139.262 25.1307 135.374 25.1307C133.703 25.1952 132.039 24.8718 130.514 24.1857C130.597 23.29 130.852 22.4188 131.266 21.6199Z" fill="#084118"/>
<path d="M176.73 36.6646L175.234 36.2204C174.697 36.0583 174.201 35.7839 173.778 35.4157C173.356 35.0475 173.016 34.5938 172.783 34.0847L172.144 32.6954L172.068 32.5301C171.822 31.7142 171.538 30.8463 171.216 29.9265C171.653 28.0582 171.898 26.1505 171.95 24.2327C171.95 20.8401 170.845 18.2129 168.637 16.3512C166.772 14.8014 164.42 14.0264 161.58 14.0264C158.46 14.0264 155.967 14.6013 154.102 15.7511C153.127 16.3559 152.64 16.9859 152.64 17.6412C152.722 18.2499 152.924 18.8362 153.236 19.3658C153.61 20.1502 153.993 20.5423 154.391 20.5423C154.725 20.5243 155.05 20.4255 155.337 20.2542C157.02 19.3113 158.912 18.8013 160.842 18.7704C162.855 18.7704 164.421 19.2651 165.541 20.2542C166.104 20.7773 166.537 21.4245 166.805 22.1442C167.095 22.8624 167.246 23.6287 167.25 24.4029C167.25 25.1589 167.25 25.7826 167.184 26.2929C165.328 24.751 162.971 23.9393 160.558 24.0106C157.955 24.0106 155.825 24.5934 154.168 25.7589C152.159 27.2048 151.154 29.2949 151.154 32.0292C151.117 33.1796 151.347 34.3229 151.823 35.3708C152.3 36.4187 153.012 37.3431 153.903 38.0726C154.729 38.76 155.678 39.2829 156.701 39.613C157.715 39.9553 158.778 40.1308 159.848 40.1327C160.822 40.1423 161.793 40.0231 162.735 39.7784C163.884 39.4992 164.961 38.9823 165.897 38.2611C166.833 37.54 167.607 36.6307 168.168 35.592V35.4171L168.471 36.0739C168.986 37.1922 169.734 38.1884 170.664 38.9964C171.594 39.8045 172.686 40.406 173.867 40.7612L175.362 41.2101C175.583 41.2754 175.813 41.3088 176.044 41.3093C176.612 41.3089 177.161 41.1045 177.59 40.7334C178.02 40.3624 178.301 39.8494 178.383 39.2882C178.465 38.727 178.343 38.1552 178.037 37.677C177.732 37.1987 177.265 36.8461 176.72 36.6835L176.73 36.6646ZM164.784 34.335C164.273 34.7233 163.705 35.0295 163.099 35.2423C162.293 35.5017 161.447 35.6215 160.6 35.5967C159.605 35.6042 158.638 35.2706 157.86 34.6517C157.476 34.3385 157.17 33.9406 156.966 33.4893C156.742 32.987 156.632 32.4416 156.644 31.8921C156.629 31.3468 156.763 30.8078 157.032 30.3328C157.369 29.803 157.81 29.3466 158.329 28.9909C159.077 28.5005 159.963 28.2635 160.856 28.3152C162.119 28.282 163.367 28.5871 164.472 29.1988C164.981 29.4366 165.419 29.8034 165.742 30.2627C166.065 30.7219 166.262 31.2577 166.313 31.8166C166.318 32.6954 165.811 33.5364 164.789 34.335H164.784Z" fill="#084118"/>
<path d="M88.0499 10.5368C88.1093 10.6357 88.1942 10.7169 88.2958 10.7718C88.3974 10.8267 88.5118 10.8533 88.6272 10.8488C88.8623 10.8546 89.0942 10.7922 89.2946 10.6691L97.3688 5.76451C97.6274 5.62721 97.8443 5.42334 97.9974 5.1741C98.1505 4.92485 98.2342 4.63931 98.2396 4.34697C98.2492 4.09402 98.1611 3.84708 97.9935 3.65711L96.3229 1.54499C96.182 1.38012 96.0036 1.25122 95.8027 1.16903C95.6018 1.08685 95.3842 1.05374 95.1679 1.07248C94.7675 1.10585 94.3943 1.28787 94.1219 1.58272L87.2499 7.8246C87.1326 7.90551 87.0328 8.00914 86.9564 8.12927C86.88 8.24939 86.8285 8.38367 86.805 8.52403C86.8027 8.70993 86.8555 8.8923 86.9566 9.04845L88.0499 10.5368Z" fill="#084118"/>
<path d="M89.7394 13.6934C86.1519 13.6934 83.178 14.8856 80.8179 17.2702C79.6646 18.4525 78.7601 19.8536 78.158 21.3906C77.5055 23.0794 77.1842 24.8776 77.2114 26.6875C77.2114 30.581 78.3537 33.7311 80.6381 36.1378C82.9351 38.6137 85.9752 39.8501 89.7583 39.8469C91.4156 39.8953 93.0647 39.5986 94.6007 38.9754C96.1367 38.3522 97.526 37.4163 98.6798 36.2275C101.1 33.7704 102.308 30.6014 102.305 26.7205C102.305 22.7073 101.237 19.5572 99.1008 17.2702C96.8638 14.8856 93.7433 13.6934 89.7394 13.6934ZM95.1253 32.7734C93.9231 34.4304 92.1578 35.2588 89.8293 35.2588C88.7997 35.3057 87.7744 35.0992 86.8435 34.6576C85.9126 34.2159 85.1046 33.5527 84.4907 32.7262C83.8993 31.9358 83.4581 31.0437 83.1892 30.0943C82.897 29.0919 82.7502 28.0528 82.7536 27.0088C82.754 25.9391 82.8812 24.8733 83.1323 23.8335C83.3648 22.8345 83.7752 21.8855 84.344 21.0315C84.8987 20.2136 85.6379 19.5371 86.5022 19.0563C87.5199 18.5596 88.6389 18.3042 89.7717 18.3099C90.9046 18.3157 92.0207 18.5824 93.0334 19.0894C95.4945 20.5101 96.7249 23.0947 96.7249 26.8433C96.7249 29.3445 96.1917 31.3212 95.1253 32.7734Z" fill="#084118"/>
<path fill-rule="evenodd" clip-rule="evenodd" d="M4.71595 12.6832C4.71616 12.674 4.71626 12.6649 4.71626 12.6557C4.71626 11.4014 3.43356 11 2.4083 11C1.38716 11 0.0111256 11.2986 6.78684e-05 12.6394C4.53229e-05 12.6398 2.29663e-05 12.6402 7.9869e-07 12.6407V12.6557V14.9517C-0.000483445 15.8495 0.219236 16.7337 0.639758 17.527C1.06028 18.3204 1.66885 18.9987 2.41237 19.5028C2.51643 19.5737 2.62056 19.6398 2.72462 19.6965C3.0552 19.8941 3.40744 20.0527 3.77456 20.1691C4.03582 20.2602 4.30512 20.3267 4.57876 20.3677C4.89075 20.4255 5.20747 20.4539 5.52477 20.4527C6.22163 20.4534 6.91203 20.3202 7.5586 20.0604L10.5952 18.8553C10.6615 18.8275 10.7295 18.8038 10.7987 18.7845C10.992 18.7191 11.1917 18.6747 11.3946 18.6521C12.8737 18.6632 14.3045 19.1803 15.4484 20.1172C16.008 20.643 16.4399 21.2896 16.7113 22.0076C16.999 22.7264 17.1498 23.4925 17.1559 24.2666C17.1559 25.0228 17.1323 25.6466 17.085 26.157C15.2307 24.6137 12.8752 23.8017 10.4629 23.8744C7.86138 23.8744 5.73287 24.4572 4.07735 25.6229C2.06866 27.0691 1.06279 29.1596 1.05964 31.8943C1.02339 33.0449 1.25222 34.1885 1.72873 35.2366C2.20524 36.2847 2.91648 37.2092 3.80759 37.9389C4.63221 38.6264 5.58125 39.1494 6.60312 39.4796C7.61814 39.8219 8.6821 39.9976 9.7534 39.9995C10.7251 40.009 11.6936 39.8898 12.6339 39.645C13.7822 39.3664 14.8591 38.8496 15.7946 38.1282C16.7301 37.4069 17.5032 36.497 18.064 35.4578C18.2295 36.3037 18.3527 37.0835 18.4425 37.8208L18.4488 37.8603C18.4883 38.1103 18.5189 38.3034 18.5324 38.4965C18.5572 38.7154 18.6247 38.9274 18.731 39.1204C18.8493 39.3472 19.2039 39.4607 19.7715 39.4607H21.9238C22.0821 39.4824 22.2432 39.4668 22.3945 39.4153C22.5457 39.3638 22.6831 39.2777 22.7952 39.1639C22.9073 39.0501 22.9911 38.9117 23.0402 38.7597C23.0893 38.6078 23.1022 38.4464 23.0779 38.2886C23.018 36.2186 22.3605 33.3973 21.1055 29.8244C21.5402 27.9493 21.7826 26.0348 21.8291 24.1107C21.8291 20.7174 20.7254 18.0898 18.5181 16.2277C16.6193 14.7005 14.2484 13.8802 11.811 13.9072H11.6644C11.3636 13.9079 11.0633 13.9301 10.7657 13.9734C10.0977 14.0582 9.4429 14.2266 8.81686 14.4744L5.78021 15.6794C5.68192 15.7177 5.57685 15.7358 5.47142 15.7326C5.36598 15.7295 5.26235 15.7051 5.16655 15.661C5.07075 15.6169 4.9848 15.5539 4.91388 15.4759C4.84297 15.3979 4.78834 15.3064 4.7536 15.2068C4.72811 15.1258 4.71554 15.0413 4.71595 14.9564V12.6832ZM12.9841 35.1222C13.5893 34.9094 14.1575 34.6032 14.668 34.2148C15.7023 33.4176 16.213 32.5781 16.2004 31.6959C16.1474 31.1375 15.95 30.6025 15.6274 30.1434C15.3048 29.6844 14.868 29.3171 14.3603 29.0777C13.2559 28.4672 12.0086 28.162 10.7468 28.1939C9.85245 28.1415 8.96503 28.3786 8.21614 28.8698C7.69918 29.2267 7.25849 29.6829 6.91999 30.2119C6.65144 30.6869 6.51744 31.2261 6.53221 31.7715C6.52286 32.3209 6.63267 32.8659 6.85394 33.3689C7.05785 33.8217 7.3657 34.2199 7.7526 34.5315C8.53026 35.1506 9.49703 35.4842 10.4913 35.4767C11.3364 35.5015 12.1795 35.3816 12.9841 35.1222Z" fill="#084118"/>
<path d="M3.84753 61.0677C3.922 61.8123 3.95923 62.7431 3.95923 63.86V68.473C3.95923 69.024 3.73956 69.2996 3.30023 69.2996H1.91522C1.44611 69.2996 1.21155 69.0092 1.21155 68.4283V56.0638C1.21155 53.9714 1.09985 52.4449 0.876465 51.4843C0.854126 51.3875 0.842957 51.2535 0.842957 51.0822C0.842957 50.9109 0.909973 50.7546 1.04401 50.6131C1.18549 50.4716 1.3642 50.4009 1.58014 50.4009H2.26147C2.67102 50.4009 2.96143 50.5796 3.13269 50.937C3.33374 51.354 3.48639 51.8939 3.59064 52.5566C4.11188 51.6481 4.823 50.9854 5.724 50.5684C6.36438 50.2706 7.09039 50.1216 7.90204 50.1216C8.72113 50.1216 9.45087 50.2817 10.0912 50.6019C10.7316 50.9147 11.264 51.3466 11.6885 51.8976C12.5299 52.9922 12.9506 54.4591 12.9506 56.2983C12.9506 58.2195 12.4778 59.8428 11.5321 61.1682C10.5343 62.5756 9.22748 63.2792 7.61163 63.2792C5.92877 63.2792 4.67407 62.5421 3.84753 61.0677ZM3.70233 57.1025C3.70233 58.1748 4.05975 59.0981 4.7746 59.8726C5.45221 60.6023 6.21918 60.9672 7.0755 60.9672C8.15521 60.9672 8.95569 60.4422 9.47693 59.3923C9.89392 58.5583 10.1024 57.5046 10.1024 56.2313C10.1024 55.2037 9.85669 54.3325 9.36523 53.6177C8.83655 52.8433 8.13287 52.4561 7.25421 52.4561C6.26385 52.4561 5.4187 52.8656 4.71875 53.6847C4.04114 54.4889 3.70233 55.4234 3.70233 56.4882V57.1025ZM19.038 59.9284C19.038 60.4571 19.2241 60.7214 19.5964 60.7214C19.7156 60.7214 19.8682 60.6879 20.0544 60.6209C20.3969 60.4943 20.6054 60.431 20.6799 60.431C20.8511 60.431 20.9852 60.539 21.082 60.7549L21.4282 61.548C21.4729 61.6597 21.4952 61.7639 21.4952 61.8607C21.4952 62.032 21.3538 62.2405 21.0708 62.4862C20.5049 62.9553 19.764 63.1899 18.8481 63.1899C17.1801 63.1899 16.3461 62.0767 16.3461 59.8502V43.9226C16.3461 43.7216 16.4057 43.5503 16.5248 43.4088C16.644 43.2673 16.7855 43.1966 16.9493 43.1966H18.446C18.6172 43.1966 18.7587 43.2673 18.8704 43.4088C18.9821 43.5503 19.038 43.7216 19.038 43.9226V59.9284ZM34.0832 62.408C34.0832 62.8027 33.8896 63 33.5024 63H32.4189C32.1285 63 31.9536 62.9442 31.894 62.8325C31.8344 62.7133 31.8009 62.6091 31.7935 62.5197C31.786 62.4229 31.7711 62.3075 31.7488 62.1735C31.7041 61.8086 31.6408 61.4139 31.5589 60.9895C30.9781 62.0543 30.0659 62.758 28.8224 63.1005C28.3831 63.2197 27.899 63.2792 27.3704 63.2792C26.8417 63.2792 26.313 63.1899 25.7843 63.0112C25.2556 62.8399 24.7865 62.583 24.377 62.2405C23.4536 61.4661 22.9919 60.4496 22.9919 59.1912C22.9919 57.8137 23.4983 56.76 24.511 56.0303C25.345 55.442 26.4172 55.1479 27.7278 55.1479C29.0383 55.1479 30.1478 55.5314 31.0563 56.2983C31.0786 56.0452 31.0898 55.7287 31.0898 55.3489C31.0898 54.9692 31.0153 54.5894 30.8664 54.2097C30.7175 53.8299 30.5052 53.5134 30.2297 53.2603C29.6638 52.7614 28.8745 52.5119 27.8618 52.5119C26.9534 52.5119 26.03 52.7614 25.0918 53.2603C24.9131 53.3571 24.7567 53.4055 24.6227 53.4055C24.4216 53.4055 24.228 53.2081 24.0419 52.8135C23.8408 52.4114 23.7403 52.121 23.7403 51.9423C23.7403 51.6146 23.986 51.2982 24.4775 50.9929C25.4157 50.412 26.6704 50.1216 28.2416 50.1216C29.6713 50.1216 30.8552 50.5126 31.7935 51.2944C32.903 52.2327 33.4577 53.5581 33.4577 55.2708C33.4577 56.0303 33.3348 56.9871 33.0891 58.1413C33.722 59.9433 34.0534 61.3655 34.0832 62.408ZM26.5997 57.6722C26.2944 57.8956 26.0747 58.119 25.9407 58.3423C25.8141 58.5657 25.7508 58.8301 25.7508 59.1354C25.7508 59.4332 25.8029 59.7013 25.9072 59.9396C26.0189 60.1704 26.1715 60.364 26.3651 60.5204C26.7747 60.8406 27.2326 61.0007 27.739 61.0007C28.2527 61.0007 28.6735 60.9411 29.0011 60.822C29.3287 60.7028 29.6117 60.5502 29.85 60.364C30.3638 59.9619 30.6207 59.5375 30.6207 59.0907C30.576 58.5322 30.267 58.0929 29.6936 57.7727C29.1798 57.4749 28.5729 57.3259 27.873 57.3259C27.3294 57.3259 26.905 57.4413 26.5997 57.6722ZM37.3112 51.2051C37.3112 50.6689 37.5681 50.4009 38.0818 50.4009H38.6962C39.1132 50.4009 39.3961 50.5573 39.545 50.87C39.7535 51.3168 39.9323 51.905 40.0812 52.6348C40.7513 51.4136 41.7491 50.6317 43.0746 50.2892C43.4916 50.1775 44.0091 50.1216 44.6271 50.1216C45.2526 50.1216 45.8297 50.2557 46.3584 50.5237C46.8871 50.7844 47.3041 51.1455 47.6094 51.6072C48.1753 52.4486 48.4583 53.6884 48.4583 55.3266V62.2628C48.4583 62.4713 48.3912 62.6463 48.2572 62.7878C48.1232 62.9293 47.9258 63 47.6652 63H46.5706C46.2877 63 46.0792 62.9293 45.9451 62.7878C45.8111 62.6463 45.7441 62.4713 45.7441 62.2628V55.3154C45.7441 53.4092 45.0441 52.4561 43.6442 52.4561C42.8251 52.4561 42.0768 52.7986 41.3992 53.4836C40.6769 54.2208 40.3157 55.0771 40.3157 56.0526V62.2628C40.3157 62.4713 40.2524 62.6463 40.1259 62.7878C39.9993 62.9293 39.8057 63 39.545 63H38.3946C38.134 63 37.9366 62.9293 37.8026 62.7878C37.6686 62.6463 37.6016 62.4713 37.6016 62.2628V55.4048C37.6016 53.9081 37.5532 52.8656 37.4564 52.2773C37.3596 51.6816 37.3112 51.3242 37.3112 51.2051ZM59.3708 52.0986C59.3708 52.5156 59.1362 52.7241 58.6671 52.7241H55.5173V59.7385C55.5173 60.498 55.8934 60.8778 56.6454 60.8778C57.122 60.8778 57.7438 60.6395 58.5107 60.163C58.6597 60.0662 58.8198 60.0178 58.991 60.0178C59.1697 60.0178 59.3112 60.1406 59.4155 60.3864L59.6724 60.9672C59.7692 61.1906 59.8176 61.3804 59.8176 61.5368C59.8176 61.6932 59.6984 61.8756 59.4601 62.0841C59.2293 62.2852 58.9315 62.4676 58.5666 62.6314C57.7401 63.0037 56.9917 63.1899 56.3215 63.1899C55.6514 63.1899 55.119 63.1229 54.7243 62.9888C54.3371 62.8474 54.0057 62.6389 53.7302 62.3633C53.1345 61.7825 52.8367 60.9448 52.8367 59.8502V52.7241H51.8984C51.4293 52.7241 51.1948 52.5119 51.1948 52.0875V51.4508C51.1948 51.2795 51.2394 51.1455 51.3288 51.0487C51.4182 50.9519 51.5931 50.8774 51.8538 50.8253L52.9707 50.5014L53.3951 47.8766C53.4771 47.3851 53.6781 47.1394 53.9983 47.1394H54.9254C55.0966 47.1394 55.2381 47.2101 55.3498 47.3516C55.4615 47.4857 55.5173 47.6606 55.5173 47.8766V50.4009H58.6671C59.1362 50.4009 59.3708 50.6057 59.3708 51.0152V52.0986ZM72.1933 62.408C72.1933 62.8027 71.9997 63 71.6125 63H70.5291C70.2386 63 70.0637 62.9442 70.0041 62.8325C69.9445 62.7133 69.911 62.6091 69.9036 62.5197C69.8961 62.4229 69.8812 62.3075 69.8589 62.1735C69.8142 61.8086 69.7509 61.4139 69.669 60.9895C69.0882 62.0543 68.176 62.758 66.9325 63.1005C66.4932 63.2197 66.0092 63.2792 65.4805 63.2792C64.9518 63.2792 64.4231 63.1899 63.8944 63.0112C63.3657 62.8399 62.8966 62.583 62.4871 62.2405C61.5637 61.4661 61.1021 60.4496 61.1021 59.1912C61.1021 57.8137 61.6084 56.76 62.6211 56.0303C63.4551 55.442 64.5273 55.1479 65.8379 55.1479C67.1484 55.1479 68.2579 55.5314 69.1664 56.2983C69.1887 56.0452 69.1999 55.7287 69.1999 55.3489C69.1999 54.9692 69.1254 54.5894 68.9765 54.2097C68.8276 53.8299 68.6154 53.5134 68.3398 53.2603C67.7739 52.7614 66.9846 52.5119 65.9719 52.5119C65.0635 52.5119 64.1401 52.7614 63.2019 53.2603C63.0232 53.3571 62.8668 53.4055 62.7328 53.4055C62.5317 53.4055 62.3381 53.2081 62.152 52.8135C61.9509 52.4114 61.8504 52.121 61.8504 51.9423C61.8504 51.6146 62.0961 51.2982 62.5876 50.9929C63.5258 50.412 64.7805 50.1216 66.3517 50.1216C67.7814 50.1216 68.9653 50.5126 69.9036 51.2944C71.0131 52.2327 71.5678 53.5581 71.5678 55.2708C71.5678 56.0303 71.4449 56.9871 71.1992 58.1413C71.8322 59.9433 72.1635 61.3655 72.1933 62.408ZM64.7098 57.6722C64.4045 57.8956 64.1848 58.119 64.0508 58.3423C63.9242 58.5657 63.8609 58.8301 63.8609 59.1354C63.8609 59.4332 63.913 59.7013 64.0173 59.9396C64.129 60.1704 64.2816 60.364 64.4752 60.5204C64.8848 60.8406 65.3427 61.0007 65.8491 61.0007C66.3629 61.0007 66.7836 60.9411 67.1112 60.822C67.4388 60.7028 67.7218 60.5502 67.9601 60.364C68.4739 59.9619 68.7308 59.5375 68.7308 59.0907C68.6861 58.5322 68.3771 58.0929 67.8037 57.7727C67.2899 57.4749 66.683 57.3259 65.9831 57.3259C65.4395 57.3259 65.0151 57.4413 64.7098 57.6722ZM90.7904 50.4009C91.267 50.4009 91.5052 50.6354 91.5052 51.1046C91.5052 51.6481 91.2223 52.8507 90.6564 54.7123L89.9639 56.8456C88.3331 61.5219 86.3115 65.3716 83.8989 68.3948L83.6755 68.6741C83.3329 69.1134 82.983 69.3331 82.6255 69.3331C82.2458 69.3331 81.8065 69.0687 81.3076 68.54C81.1661 68.3911 81.0953 68.2198 81.0953 68.0262C81.0953 67.7135 81.2629 67.3821 81.598 67.0322C81.933 66.6896 82.2421 66.3434 82.525 65.9934C82.808 65.6509 83.076 65.3046 83.3292 64.9547C83.7909 64.3217 84.2079 63.6553 84.5802 62.9553C83.4186 59.8204 82.7149 57.944 82.4692 57.3259L81.2517 54.299L80.3917 52.3444C80.0715 51.5997 79.9114 51.1492 79.9114 50.9929C79.9114 50.829 79.9784 50.6913 80.1124 50.5796C80.2539 50.4604 80.4512 50.4009 80.7044 50.4009H82.1118C82.4394 50.4009 82.6926 50.587 82.8713 50.9594C83.0053 51.2349 83.1877 51.6891 83.4186 52.322C83.8877 53.6921 84.2302 54.7086 84.4462 55.3713L85.3509 58.3312C85.4402 58.629 85.5073 58.8673 85.5519 59.046L85.6525 59.4481C85.6748 59.5375 85.7009 59.6492 85.7307 59.7832L85.8312 60.2076C85.8684 60.3566 85.9094 60.431 85.954 60.431C85.9987 60.431 86.0471 60.3864 86.0992 60.297C86.1588 60.2076 86.2184 60.0922 86.278 59.9507L86.4678 59.4816C87.2422 57.4935 87.9757 54.7086 88.6682 51.1269C88.7576 50.6429 89.0368 50.4009 89.5059 50.4009H90.7904ZM99.9605 51.2051C99.9605 50.6689 100.195 50.4009 100.664 50.4009H101.267C101.677 50.4009 101.967 50.5796 102.139 50.937C102.384 51.4583 102.563 52.1768 102.675 53.0927C102.675 53.1076 102.678 53.1151 102.686 53.1151C102.701 53.1151 102.727 52.9885 102.764 52.7353C102.801 52.4821 102.909 52.1731 103.088 51.8082C103.267 51.4359 103.486 51.1232 103.747 50.87C104.276 50.3711 104.923 50.1216 105.69 50.1216C106.547 50.1216 107.142 50.2631 107.478 50.5461C107.634 50.6727 107.697 50.8477 107.667 51.071L107.489 52.4784C107.444 52.8582 107.25 53.048 106.908 53.048C106.744 53.048 106.543 53.0145 106.305 52.9475C105.843 52.8284 105.478 52.7688 105.21 52.7688C104.942 52.7688 104.659 52.8879 104.361 53.1262C104.063 53.3571 103.807 53.6475 103.591 53.9974C103.151 54.7272 102.932 55.5053 102.932 56.3318V62.2628C102.932 62.4713 102.872 62.6463 102.753 62.7878C102.634 62.9293 102.462 63 102.239 63H100.943C100.705 63 100.523 62.9293 100.396 62.7878C100.277 62.6463 100.217 62.4713 100.217 62.2628V54.5671C100.217 53.2565 100.173 52.3928 100.083 51.9758C100.001 51.5513 99.9605 51.2944 99.9605 51.2051ZM111.655 57.3148L111.644 57.527C111.644 58.5471 111.968 59.3662 112.615 59.9843C113.293 60.6395 114.213 60.9672 115.374 60.9672C116.432 60.9672 117.415 60.6507 118.323 60.0178C118.494 59.8986 118.647 59.8391 118.781 59.8391C119.057 59.8391 119.265 59.9768 119.406 60.2523L119.708 60.8778C119.775 61.0267 119.809 61.1868 119.809 61.3581C119.809 61.5294 119.73 61.7081 119.574 61.8942C119.425 62.0729 119.228 62.2368 118.982 62.3857C118.736 62.5346 118.45 62.6649 118.122 62.7766C117.802 62.8883 117.47 62.9814 117.128 63.0558C116.443 63.2048 115.728 63.2792 114.983 63.2792C114.239 63.2792 113.487 63.1378 112.727 62.8548C111.975 62.5718 111.324 62.1586 110.773 61.615C109.589 60.4608 108.997 58.9008 108.997 56.935C108.997 53.4874 110.21 51.3428 112.638 50.5014C113.397 50.2408 114.175 50.1105 114.972 50.1105C115.776 50.1105 116.458 50.1961 117.016 50.3674C117.582 50.5386 118.07 50.7918 118.479 51.1269C119.343 51.8343 119.775 52.8209 119.775 54.0868C119.775 55.3303 119.269 56.2797 118.256 56.935C117.37 57.5084 116.201 57.795 114.749 57.795C113.855 57.795 112.824 57.6349 111.655 57.3148ZM117.15 54.0533C117.15 52.9885 116.435 52.4561 115.006 52.4561C113.643 52.4561 112.69 52.955 112.146 53.9528C111.953 54.3027 111.826 54.7346 111.767 55.2484C112.407 55.5686 113.222 55.7287 114.213 55.7287C116.171 55.7287 117.15 55.1702 117.15 54.0533ZM126.633 60.9895C128.063 60.9895 128.778 60.5092 128.778 59.5486C128.778 59.02 128.372 58.5732 127.56 58.2083C127.218 58.0519 126.842 57.9067 126.432 57.7727C126.03 57.6387 125.643 57.4786 125.27 57.2924C124.898 57.1063 124.548 56.9052 124.221 56.6893C123.9 56.4659 123.621 56.2127 123.383 55.9297C122.891 55.334 122.646 54.5782 122.646 53.6624C122.646 52.5454 123.111 51.6593 124.042 51.004C124.868 50.4158 125.885 50.1216 127.091 50.1216C128.387 50.1216 129.47 50.3748 130.341 50.8812C130.639 51.0599 130.788 51.2646 130.788 51.4955C130.788 51.8231 130.699 52.1843 130.52 52.5789C130.349 52.9661 130.144 53.1597 129.906 53.1597C129.675 53.1597 129.463 53.1113 129.269 53.0145C129.083 52.9177 128.912 52.8358 128.755 52.7688C128.606 52.6943 128.446 52.6348 128.275 52.5901C127.903 52.4784 127.556 52.4225 127.236 52.4225C126.924 52.4225 126.67 52.4449 126.477 52.4896C126.283 52.5342 126.108 52.605 125.952 52.7018C125.572 52.9326 125.382 53.2156 125.382 53.5507C125.382 53.8857 125.457 54.1426 125.606 54.3214C125.762 54.5001 125.974 54.6639 126.242 54.8128C126.51 54.9617 126.83 55.1107 127.203 55.2596L128.409 55.7622C129.385 56.1866 130.044 56.5701 130.386 56.9127C131.056 57.5977 131.391 58.3907 131.391 59.2917C131.391 60.4236 131.004 61.3544 130.23 62.0841C129.373 62.8809 128.156 63.2792 126.577 63.2792C124.976 63.2792 123.774 62.9702 122.97 62.3522C122.575 62.0543 122.378 61.7863 122.378 61.548C122.378 61.3097 122.419 61.0975 122.5 60.9113C122.59 60.7177 122.701 60.4943 122.836 60.2411C122.977 59.9805 123.163 59.8502 123.394 59.8502C123.632 59.8502 123.882 59.9582 124.142 60.1741C124.41 60.3826 124.775 60.5725 125.237 60.7438C125.699 60.9076 126.164 60.9895 126.633 60.9895ZM137.367 61.0677C137.441 61.8123 137.479 62.7431 137.479 63.86V68.473C137.479 69.024 137.259 69.2996 136.82 69.2996H135.435C134.966 69.2996 134.731 69.0092 134.731 68.4283V56.0638C134.731 53.9714 134.619 52.4449 134.396 51.4843C134.374 51.3875 134.362 51.2535 134.362 51.0822C134.362 50.9109 134.429 50.7546 134.563 50.6131C134.705 50.4716 134.884 50.4009 135.1 50.4009H135.781C136.19 50.4009 136.481 50.5796 136.652 50.937C136.853 51.354 137.006 51.8939 137.11 52.5566C137.631 51.6481 138.342 50.9854 139.243 50.5684C139.884 50.2706 140.61 50.1216 141.421 50.1216C142.241 50.1216 142.97 50.2817 143.611 50.6019C144.251 50.9147 144.783 51.3466 145.208 51.8976C146.049 52.9922 146.47 54.4591 146.47 56.2983C146.47 58.2195 145.997 59.8428 145.052 61.1682C144.054 62.5756 142.747 63.2792 141.131 63.2792C139.448 63.2792 138.193 62.5421 137.367 61.0677ZM137.222 57.1025C137.222 58.1748 137.579 59.0981 138.294 59.8726C138.972 60.6023 139.739 60.9672 140.595 60.9672C141.675 60.9672 142.475 60.4422 142.996 59.3923C143.413 58.5583 143.622 57.5046 143.622 56.2313C143.622 55.2037 143.376 54.3325 142.885 53.6177C142.356 52.8433 141.652 52.4561 140.774 52.4561C139.783 52.4561 138.938 52.8656 138.238 53.6847C137.561 54.4889 137.222 55.4234 137.222 56.4882V57.1025ZM151.195 48.2452C150.688 48.2452 150.256 48.0702 149.899 47.7202C149.542 47.3777 149.363 46.9458 149.363 46.4246C149.363 45.9182 149.542 45.4863 149.899 45.1289C150.242 44.7864 150.673 44.6151 151.195 44.6151C151.991 44.6151 152.55 44.98 152.87 45.7097C152.967 45.9257 153.015 46.1639 153.015 46.4246C153.015 46.9458 152.837 47.3777 152.479 47.7202C152.122 48.0702 151.694 48.2452 151.195 48.2452ZM152.502 59.9284C152.502 60.4571 152.677 60.7214 153.026 60.7214C153.146 60.7214 153.28 60.6879 153.429 60.6209C153.719 60.4943 153.916 60.431 154.021 60.431C154.177 60.431 154.304 60.539 154.4 60.7549L154.747 61.5368C154.806 61.6634 154.836 61.7825 154.836 61.8942C154.836 62.2144 154.56 62.5123 154.009 62.7878C153.488 63.0558 152.971 63.1899 152.457 63.1899C151.951 63.1899 151.545 63.134 151.239 63.0223C150.934 62.9106 150.673 62.7245 150.458 62.4639C150.026 61.9277 149.81 61.0565 149.81 59.8502V51.1381C149.81 50.9296 149.869 50.7546 149.988 50.6131C150.108 50.4716 150.249 50.4009 150.413 50.4009H151.91C152.081 50.4009 152.222 50.4716 152.334 50.6131C152.446 50.7546 152.502 50.9296 152.502 51.1381V59.9284ZM157.193 51.2051C157.193 50.6689 157.427 50.4009 157.896 50.4009H158.5C158.909 50.4009 159.199 50.5796 159.371 50.937C159.616 51.4583 159.795 52.1768 159.907 53.0927C159.907 53.1076 159.911 53.1151 159.918 53.1151C159.933 53.1151 159.959 52.9885 159.996 52.7353C160.033 52.4821 160.141 52.1731 160.32 51.8082C160.499 51.4359 160.719 51.1232 160.979 50.87C161.508 50.3711 162.156 50.1216 162.923 50.1216C163.779 50.1216 164.375 50.2631 164.71 50.5461C164.866 50.6727 164.929 50.8477 164.9 51.071L164.721 52.4784C164.676 52.8582 164.483 53.048 164.14 53.048C163.976 53.048 163.775 53.0145 163.537 52.9475C163.075 52.8284 162.71 52.7688 162.442 52.7688C162.174 52.7688 161.891 52.8879 161.593 53.1262C161.296 53.3571 161.039 53.6475 160.823 53.9974C160.383 54.7272 160.164 55.5053 160.164 56.3318V62.2628C160.164 62.4713 160.104 62.6463 159.985 62.7878C159.866 62.9293 159.695 63 159.471 63H158.176C157.937 63 157.755 62.9293 157.628 62.7878C157.509 62.6463 157.45 62.4713 157.45 62.2628V54.5671C157.45 53.2565 157.405 52.3928 157.316 51.9758C157.234 51.5513 157.193 51.2944 157.193 51.2051ZM177.141 62.408C177.141 62.8027 176.948 63 176.56 63H175.477C175.187 63 175.012 62.9442 174.952 62.8325C174.893 62.7133 174.859 62.6091 174.852 62.5197C174.844 62.4229 174.829 62.3075 174.807 62.1735C174.762 61.8086 174.699 61.4139 174.617 60.9895C174.036 62.0543 173.124 62.758 171.88 63.1005C171.441 63.2197 170.957 63.2792 170.428 63.2792C169.9 63.2792 169.371 63.1899 168.842 63.0112C168.314 62.8399 167.845 62.583 167.435 62.2405C166.512 61.4661 166.05 60.4496 166.05 59.1912C166.05 57.8137 166.556 56.76 167.569 56.0303C168.403 55.442 169.475 55.1479 170.786 55.1479C172.096 55.1479 173.206 55.5314 174.114 56.2983C174.137 56.0452 174.148 55.7287 174.148 55.3489C174.148 54.9692 174.073 54.5894 173.924 54.2097C173.776 53.8299 173.563 53.5134 173.288 53.2603C172.722 52.7614 171.933 52.5119 170.92 52.5119C170.011 52.5119 169.088 52.7614 168.15 53.2603C167.971 53.3571 167.815 53.4055 167.681 53.4055C167.48 53.4055 167.286 53.2081 167.1 52.8135C166.899 52.4114 166.798 52.121 166.798 51.9423C166.798 51.6146 167.044 51.2982 167.536 50.9929C168.474 50.412 169.729 50.1216 171.3 50.1216C172.729 50.1216 173.913 50.5126 174.852 51.2944C175.961 52.2327 176.516 53.5581 176.516 55.2708C176.516 56.0303 176.393 56.9871 176.147 58.1413C176.78 59.9433 177.112 61.3655 177.141 62.408ZM169.658 57.6722C169.352 57.8956 169.133 58.119 168.999 58.3423C168.872 58.5657 168.809 58.8301 168.809 59.1354C168.809 59.4332 168.861 59.7013 168.965 59.9396C169.077 60.1704 169.23 60.364 169.423 60.5204C169.833 60.8406 170.291 61.0007 170.797 61.0007C171.311 61.0007 171.732 60.9411 172.059 60.822C172.387 60.7028 172.67 60.5502 172.908 60.364C173.422 59.9619 173.679 59.5375 173.679 59.0907C173.634 58.5322 173.325 58.0929 172.752 57.7727C172.238 57.4749 171.631 57.3259 170.931 57.3259C170.388 57.3259 169.963 57.4413 169.658 57.6722Z" fill="#007934"/>
</svg>
