<svg width="493" height="185" viewBox="0 0 493 185" fill="none" xmlns="http://www.w3.org/2000/svg">
<rect width="493" height="185" fill="url(#paint0_linear)"/>
<rect width="493" height="185" fill="url(#paint1_linear)"/>
<path d="M132.854 51.0712L128.062 89.2071H118L122.839 51.024L132.854 51.0712ZM139.466 51.024L134.626 89.2071H141.622L146.413 51.0712L139.466 51.024ZM152.451 51.024L147.611 89.2071H151.588L156.38 51.0712L152.451 51.024Z" fill="white"/>
<path d="M157.228 89.1556H167.524C168.064 84.6069 168.577 80.4863 169.01 76.9009L169.982 69.1948H170.712L173.684 77.4895C175.09 81.4228 176.63 85.5969 177.9 89.1556H185.223C186.33 85.5702 187.546 81.5298 188.762 77.4628L191.248 69.1948H191.978L192.951 76.9009C193.383 80.4863 193.896 84.6069 194.464 89.1556H205.056C204.57 85.1688 204.083 81.4496 203.462 76.8206L201.76 63.8969C201.165 59.2144 200.652 55.2009 200.057 51H188.979C187.6 54.9601 186.466 58.0371 185.25 61.4085L181.71 71.2819H181.007L177.224 61.4085C175.927 58.0371 174.738 54.8263 173.279 51H162.038C161.498 55.2544 161.011 59.2947 160.417 63.8969L158.796 76.8206C158.201 81.4228 157.715 85.3294 157.228 89.1556Z" fill="white"/>
<path d="M234.471 89.1556H243.659C242.335 85.0885 240.821 80.4863 239.416 76.2587L235.12 63.121C233.58 58.492 232.418 54.9868 231.121 51H219.664L215.665 63.121L211.314 76.2319L207.045 89.1556H215.962L218.313 81.182H232.175C232.931 83.8042 233.742 86.5602 234.471 89.1556ZM225.636 58.4652L230.283 74.5998H220.231L224.987 58.4652H225.636Z" fill="white"/>
<path d="M247.969 89.1556H260.507C275.287 89.1556 280.692 80.7004 280.692 69.944C280.692 57.9568 273.963 51 262.155 51C257.264 51 252.697 51 247.969 51V89.1556ZM254.319 84.0183V56.1374H261.047C270.099 56.1374 274.071 61.5691 274.071 69.837C274.071 77.9444 270.558 84.0183 260.534 84.0183H254.319Z" fill="white"/>
<path d="M305.165 78.2387L300.598 72.593C308.002 71.5762 310.596 66.867 310.596 61.3282C310.596 53.863 306.192 51 297.383 51C292.005 51 287.439 51 284.358 51V89.1556H289.141V73.6633H296.005L301.058 80.1117C303.354 82.9747 305.678 85.9448 308.245 89.1556H313.974C311.569 86.2123 307.975 81.7171 305.165 78.2387ZM289.141 55.0136H297.221C300.868 55.0136 305.543 55.4417 305.543 61.8099C305.543 67.5359 302.382 69.6765 295.626 69.6765H289.141V55.0136Z" fill="white"/>
<path d="M317.455 89.1556H320.184V51H317.455V89.1556Z" fill="white"/>
<path d="M328.817 89.1556H340.22C354.596 89.1556 360 80.6736 360 69.8905C360 58.0906 353.326 51 341.355 51C337.275 51 333.843 51 328.817 51V89.1556ZM331.52 86.7742V53.3814H340.923C352.164 53.3814 357.19 59.8566 357.19 69.837C357.19 79.4963 352.785 86.7742 340.247 86.7742H331.52Z" fill="white"/>
<path d="M162.051 140H165.688C167.913 137.844 169.971 134.883 169.971 129.789V98.7063H166.621V129.434C166.573 134.267 164.899 136.991 162.051 140Z" fill="white"/>
<path d="M194.432 133.011C205.103 133.011 211.395 125.548 211.395 115.551C211.395 105.861 205.39 98.0903 194.288 98.0903C183.331 98.0903 177.11 105.743 177.11 115.574C177.11 124.956 182.828 133.011 194.432 133.011ZM194.312 129.315C185.604 129.315 181.608 122.848 181.608 115.551C181.608 108.278 185.771 101.786 194.312 101.786C202.566 101.786 206.897 107.875 206.897 115.551C206.897 122.705 203.021 129.315 194.312 129.315Z" fill="white"/>
<path d="M226.319 132.49H232.205C233.425 129.078 234.908 125.075 236.057 121.805L239.861 111.168C241.177 107.496 242.876 102.757 244.311 98.7063H239.67C237.899 103.729 235.985 109.201 234.334 114.129L229.477 128.06H229.071L224.262 114.177C222.587 109.367 220.577 103.563 218.903 98.7063H214.094C215.577 102.757 217.3 107.543 218.615 111.168L222.467 121.781C223.64 125.027 225.123 129.126 226.319 132.49Z" fill="white"/>
<path d="M255.916 126.97V118.038H270.702V112.803H255.916V104.226H271.515V98.7063H249.36V132.49H271.683V126.97H255.916Z" fill="white"/>
<path d="M277.818 132.49H284.111V109.865H284.613L290.833 118.702C294.614 124.032 297.652 128.368 300.547 132.49H306.361V98.7063H300.045V121.237H299.542L293.393 112.471C290.259 108.064 287.221 103.658 283.704 98.7063H277.818V132.49Z" fill="white"/>
<defs>
<linearGradient id="paint0_linear" x1="-178.091" y1="99.1427" x2="726.83" y2="80.373" gradientUnits="userSpaceOnUse">
<stop stop-color="#FF007A"/>
<stop offset="1" stop-color="#FFE600"/>
</linearGradient>
<linearGradient id="paint1_linear" x1="-178.091" y1="99.1427" x2="726.83" y2="80.373" gradientUnits="userSpaceOnUse">
<stop stop-color="#FF007A"/>
<stop offset="1" stop-color="#FFE600"/>
</linearGradient>
</defs>
</svg>
