<svg width="1572" height="224" viewBox="0 0 1572 224" fill="none" xmlns="http://www.w3.org/2000/svg">
<path d="M0 0H1572V224H0V0Z" fill="url(#paint0_linear)"/>
<path d="M1021.21 53.1161L1012.06 126.582H992.856L1002.09 53.0252L1021.21 53.1161ZM1033.83 53.0252L1024.59 126.582H1037.95L1047.09 53.1161L1033.83 53.0252ZM1058.62 53.0252L1049.38 126.582H1056.97L1066.12 53.1161L1058.62 53.0252Z" fill="white"/>
<path d="M1070.69 126.582H1082.12L1088.53 73.748H1089.41L1098.14 95.8223C1102.17 106.11 1106.83 117.742 1110.34 126.582H1118.51C1122.08 117.276 1126.21 106.317 1130.19 95.6672L1138.47 73.748H1139.34L1145.75 126.582H1157.33C1156.4 118.517 1155.47 111.28 1154.34 102.336L1151.29 77.7286C1150.15 68.6817 1149.27 61.1858 1148.18 52.8627H1136.04C1132.16 62.7884 1128.69 71.4217 1125.18 80.3651L1114.74 106.73H1113.86L1103.21 80.3651C1099.54 71.4217 1096.07 62.6333 1092.09 52.8627H1079.89C1078.86 61.2892 1077.93 68.8368 1076.79 77.7286L1073.74 102.336L1070.69 126.582Z" fill="white"/>
<path d="M1001.63 161.355C1009.1 161.355 1013.63 155.981 1013.63 148.799C1013.63 141.821 1009.31 136.243 1001.53 136.243C993.887 136.243 989.383 141.736 989.383 148.799C989.383 155.589 993.495 161.355 1001.63 161.355ZM1001.55 159.205C994.877 159.205 991.874 154.309 991.874 148.799C991.874 143.323 995.013 138.375 1001.55 138.375C1007.88 138.375 1011.13 142.981 1011.13 148.799C1011.13 154.207 1008.22 159.205 1001.55 159.205Z" fill="white"/>
<path d="M1027.1 136.669C1023.48 136.669 1020.63 136.669 1018.81 136.669V160.997H1021.18V150.982H1026.21C1033 150.982 1035.12 147.792 1035.12 143.442C1035.12 138.836 1032.54 136.669 1027.1 136.669ZM1025.82 148.969H1021.18V138.717H1026.94C1029.42 138.717 1032.68 139.092 1032.68 143.459C1032.68 147.4 1030.58 148.969 1025.82 148.969Z" fill="white"/>
<path d="M1042.81 158.352V149.959H1054.23V147.383H1042.81V139.314H1054.91V136.669H1039.79V160.997H1054.94V158.352H1042.81Z" fill="white"/>
<path d="M1060.02 160.997H1062.95V141.924H1063.19L1068.5 149.43C1071.69 153.934 1074.28 157.568 1076.69 160.997H1079.43V136.669H1076.5V155.64H1076.24L1070.97 148.202C1068.34 144.5 1065.72 140.764 1062.8 136.669H1060.02V160.997Z" fill="white"/>
<path d="M1096.75 161.406C1099.41 161.406 1102.2 160.877 1104.15 159.7L1103.88 155.947C1101.76 157.482 1099.44 158.028 1097.19 158.028C1091.29 158.028 1088.32 153.849 1088.32 148.816C1088.32 143.101 1091.82 139.672 1096.68 139.672C1098.88 139.672 1101.32 140.32 1103.95 141.924L1104.29 138.136C1102.51 137.181 1099.48 136.209 1096.3 136.209C1088.92 136.209 1084.14 141.463 1084.14 148.816C1084.14 156.152 1088.95 161.406 1096.75 161.406Z" fill="white"/>
<path d="M1108.89 160.997H1112.97V136.669H1108.89V160.997Z" fill="white"/>
<path d="M1136.97 136.669H1116.88V140.849H1124.55V160.997H1129.31V140.849H1136.97V136.669Z" fill="white"/>
<path d="M1160.47 136.669H1154.27C1153.03 139.45 1152.4 140.849 1151.36 143.135L1149.8 146.564H1149.34L1147.77 143.05C1146.82 140.832 1146.24 139.484 1144.98 136.669H1138.6C1139.91 139.092 1140.78 140.815 1141.87 142.862L1146.77 152.194V160.997H1152.4V152.126L1157.24 142.862C1158.27 140.866 1159.38 138.751 1160.47 136.669Z" fill="white"/>
<path d="M307.201 68.1267L301.808 111.624H290.482L295.929 68.0729L307.201 68.1267ZM314.644 68.0729L309.197 111.624H317.071L322.464 68.1267L314.644 68.0729ZM329.26 68.0729L323.813 111.624H328.289L333.682 68.1267L329.26 68.0729Z" fill="white"/>
<path d="M335.909 111.52H343.909C344.669 104.897 345.399 98.8849 346.038 93.6662L347.407 82.4353H347.984L352.669 94.5818C354.858 100.258 357.353 106.576 359.238 111.52H364.926C366.812 106.392 368.971 100.38 371.07 94.5207L375.42 82.4353H375.997L379.556 111.52H387.647C387.099 106.82 386.552 102.547 385.883 97.2674L384.058 82.6795C383.389 77.3387 382.841 72.883 382.202 68H373.686C371.618 73.4934 369.762 78.2238 367.846 83.1373L362.25 97.6031H361.672L355.923 83.1373C353.946 78.2238 352.06 73.4018 349.931 68H341.323C340.715 72.944 340.168 77.4303 339.498 82.6795L337.704 97.2674L335.909 111.52Z" fill="white"/>
<path d="M424.049 111.52H429.767C428.095 106.881 426.239 101.632 424.536 96.8096L419.183 81.825C417.267 76.4842 415.837 72.4557 414.255 68H407.016C405.404 72.3947 403.944 76.4232 402.028 81.825L396.645 96.7791C394.941 101.448 392.995 106.85 391.322 111.52H396.888L400.72 100.594H420.308C421.525 104.195 422.833 107.979 424.049 111.52ZM402.211 96.2603C402.272 96.1382 402.302 95.9856 402.363 95.8635L410.332 72.9745H410.849L418.757 96.0467C418.787 96.1077 418.818 96.1992 418.818 96.2603H402.211Z" fill="white"/>
<path d="M435.998 111.52H449.199C465.532 111.52 471.615 101.845 471.615 89.5767C471.615 76.0264 464.103 68 450.659 68C445.792 68 441.534 68 435.998 68V111.52ZM440.287 107.857V71.6622H449.959C461.882 71.6622 467.175 78.6815 467.175 89.4851C467.175 99.953 462.491 107.857 449.26 107.857H440.287Z" fill="white"/>
<path d="M499.647 99.068L494.507 92.6286C502.84 91.4689 505.76 86.0976 505.76 79.7802C505.76 71.2655 500.803 68 490.887 68C484.834 68 479.694 68 476.227 68V111.52H481.61V93.8493H489.336L495.024 101.204C497.609 104.47 500.225 107.857 503.114 111.52H509.562C506.855 108.163 502.81 103.035 499.647 99.068ZM481.61 72.5778H490.705C494.811 72.5778 500.073 73.0661 500.073 80.3295C500.073 86.8605 496.514 89.302 488.91 89.302H481.61V72.5778Z" fill="white"/>
<path d="M512.356 111.52H519.625V68H512.356V111.52Z" fill="white"/>
<path d="M526.589 111.52H541.158C557.947 111.52 564 101.906 564 89.6072C564 75.9043 556.426 68 543.165 68C537.386 68 531.82 68 526.589 68V111.52ZM535.135 104.622V74.8972H541.705C551.073 74.8972 555.149 80.6958 555.149 89.4851C555.149 98.1524 551.499 104.622 541.158 104.622H535.135Z" fill="white"/>
<path d="M308.651 160.864C320.756 160.864 327.894 152.285 327.894 140.793C327.894 129.654 321.082 120.721 308.488 120.721C296.057 120.721 289 129.518 289 140.82C289 151.604 295.487 160.864 308.651 160.864ZM308.515 156.615C298.635 156.615 294.103 149.181 294.103 140.793C294.103 132.432 298.825 124.97 308.515 124.97C317.879 124.97 322.792 131.969 322.792 140.793C322.792 149.017 318.395 156.615 308.515 156.615Z" fill="white"/>
<path d="M349.357 121.429C343.359 121.429 338.636 121.429 335.678 121.429V160.265H340.509V144.796H348.326C358.965 144.796 362.44 139.649 362.44 132.541C362.44 124.834 358.178 121.429 349.357 121.429ZM347.403 140.711H340.509V125.515H349.032C352.723 125.515 357.418 126.168 357.418 132.568C357.418 138.396 354.351 140.711 347.403 140.711Z" fill="white"/>
<path d="M375.492 154.872V143.216H392.89V138.015H375.492V126.822H393.895V121.429H369.25V160.265H394.03V154.872H375.492Z" fill="white"/>
<path d="M401.128 160.265H408.266V134.257H408.836L415.893 144.415C420.181 150.542 423.628 155.526 426.913 160.265H433.508V121.429H426.343V147.329H425.773L418.797 137.252C415.242 132.187 411.795 127.121 407.805 121.429H401.128V160.265Z" fill="white"/>
<path d="M460.213 161C464.556 161 469.143 160.21 472.237 158.44L471.748 150.215C468.329 152.775 464.746 153.62 461.38 153.62C453.129 153.62 449.085 147.764 449.085 140.874C449.085 132.786 453.916 128.265 460.512 128.265C463.769 128.265 467.541 129.3 471.776 131.942L472.454 123.608C469.441 122.056 464.502 120.64 459.507 120.64C447.158 120.64 439.775 129.191 439.775 140.874C439.775 152.884 447.619 161 460.213 161Z" fill="white"/>
<path d="M479.19 160.265H486.953V121.429H479.19V160.265Z" fill="white"/>
<path d="M524.584 121.429H492.856V127.067H505.558V160.265H511.909V127.067H524.584V121.429Z" fill="white"/>
<path d="M560.145 121.429H554.635C551.703 126.577 550.238 129.191 547.795 133.412L544.158 139.785H543.669L539.924 133.194C537.644 129.137 536.26 126.631 533.274 121.429H527.656C529.854 125.079 531.347 127.666 533.138 130.716L541.471 144.905V160.265H546.384V144.878L560.145 121.429Z" fill="white"/>
<defs>
<linearGradient id="paint0_linear" x1="0" y1="112.122" x2="1572" y2="112.123" gradientUnits="userSpaceOnUse">
<stop stop-color="#9115CB"/>
<stop offset="1" stop-color="#3465FF"/>
</linearGradient>
</defs>
</svg>
