<svg width="1572" height="224" viewBox="0 0 1572 224" fill="none" xmlns="http://www.w3.org/2000/svg">
<path d="M0 0H1572V224H0V0Z" fill="url(#paint0_linear)"/>
<path d="M1020.81 54.2521L1011.67 127.35H992.471L1001.7 54.1617L1020.81 54.2521ZM1033.43 54.1617L1024.19 127.35H1037.54L1046.68 54.2521L1033.43 54.1617ZM1058.2 54.1617L1048.97 127.35H1056.55L1065.7 54.2521L1058.2 54.1617Z" fill="white"/>
<path d="M1071.76 127.35H1078.84C1080.49 113.616 1081.99 101.117 1083.33 90.3663L1086.12 67.2194H1086.69L1097.02 92.3724C1101.83 104.1 1107.41 117.474 1111.49 127.35H1116.5C1120.84 116.857 1125.96 104.306 1130.82 92.2181L1140.94 67.2194H1141.51L1144.35 90.3663C1145.65 101.117 1147.14 113.616 1148.85 127.35H1155.77C1154.84 119.171 1153.91 111.919 1152.88 103.02L1149.88 78.69C1148.75 69.6884 1147.87 62.3843 1146.83 54H1139.55L1114.28 115.416H1113.66L1101.21 85.274C1096.92 75.0894 1092.79 65.0076 1088.24 54H1080.95C1079.92 62.4872 1078.99 69.8428 1077.85 78.69L1074.81 103.02C1073.67 111.97 1072.74 119.377 1071.76 127.35Z" fill="white"/>
<path d="M1001.24 161.949C1008.71 161.949 1013.23 156.602 1013.23 149.456C1013.23 142.513 1008.92 136.963 1001.14 136.963C993.502 136.963 989 142.429 989 149.456C989 156.212 993.109 161.949 1001.24 161.949ZM1001.16 159.81C994.491 159.81 991.49 154.939 991.49 149.456C991.49 144.007 994.627 139.085 1001.16 139.085C1007.48 139.085 1010.74 143.668 1010.74 149.456C1010.74 154.837 1007.82 159.81 1001.16 159.81Z" fill="white"/>
<path d="M1026.7 137.387C1023.08 137.387 1020.23 137.387 1018.41 137.387V161.593H1020.78V151.629H1025.81C1032.6 151.629 1034.71 148.454 1034.71 144.126C1034.71 139.543 1032.14 137.387 1026.7 137.387ZM1025.42 149.626H1020.78V139.424H1026.54C1029.02 139.424 1032.27 139.798 1032.27 144.143C1032.27 148.064 1030.18 149.626 1025.42 149.626Z" fill="white"/>
<path d="M1042.4 158.962V150.61H1053.81V148.047H1042.4V140.018H1054.49V137.387H1039.39V161.593H1054.53V158.962H1042.4Z" fill="white"/>
<path d="M1059.6 161.593H1062.53V142.615H1062.77L1068.08 150.084C1071.26 154.565 1073.86 158.181 1076.26 161.593H1079.01V137.387H1076.07V156.263H1075.82L1070.55 148.862C1067.92 145.178 1065.3 141.461 1062.38 137.387H1059.6V161.593Z" fill="white"/>
<path d="M1096.31 162C1098.97 162 1101.77 161.474 1103.71 160.303L1103.44 156.568C1101.32 158.096 1099 158.639 1096.75 158.639C1090.85 158.639 1087.89 154.48 1087.89 149.473C1087.89 143.786 1091.38 140.375 1096.24 140.375C1098.44 140.375 1100.88 141.02 1103.51 142.615L1103.85 138.847C1102.07 137.896 1099.04 136.929 1095.87 136.929C1088.48 136.929 1083.71 142.157 1083.71 149.473C1083.71 156.772 1088.52 162 1096.31 162Z" fill="white"/>
<path d="M1108.45 161.593H1112.53V137.387H1108.45V161.593Z" fill="white"/>
<path d="M1136.52 137.387H1116.43V141.546H1124.1V161.593H1128.86V141.546H1136.52V137.387Z" fill="white"/>
<path d="M1160 137.387H1153.81C1152.57 140.154 1151.93 141.546 1150.89 143.82L1149.34 147.232H1148.88L1147.31 143.736C1146.36 141.529 1145.78 140.188 1144.52 137.387H1138.14C1139.45 139.798 1140.32 141.512 1141.41 143.549L1146.31 152.834V161.593H1151.93V152.766L1156.78 143.549C1157.8 141.563 1158.91 139.458 1160 137.387Z" fill="white"/>
<path d="M306.745 69.1265L301.369 112.523H290.079L295.509 69.0727L306.745 69.1265ZM314.164 69.0727L308.734 112.523H316.584L321.96 69.1265L314.164 69.0727ZM328.734 69.0727L323.304 112.523H327.766L333.142 69.1265L328.734 69.0727Z" fill="white"/>
<path d="M335.444 112.419H339.598C340.568 104.29 341.448 96.8907 342.236 90.527L343.873 76.8252H344.207L350.27 91.7145C353.09 98.6567 356.365 106.573 358.76 112.419H361.701C364.248 106.208 367.249 98.7785 370.099 91.6231L376.042 76.8252H376.375L378.043 90.527C378.801 96.8907 379.68 104.29 380.681 112.419H384.743C384.198 107.578 383.652 103.285 383.046 98.0173L381.287 83.6152C380.62 78.2867 380.105 73.9631 379.498 69H375.223L360.397 105.355H360.033L352.726 87.5126C350.21 81.4838 347.784 75.5159 345.116 69H340.841C340.235 74.024 339.689 78.3781 339.022 83.6152L337.233 98.0173C336.566 103.315 336.02 107.7 335.444 112.419Z" fill="white"/>
<path d="M421.979 112.419H427.679C426.011 107.791 424.162 102.554 422.464 97.7432L417.128 82.7931C415.218 77.4646 413.793 73.4455 412.216 69H405C403.393 73.3846 401.938 77.4037 400.028 82.7931L394.661 97.7128C392.963 102.371 391.023 107.761 389.355 112.419H394.904L398.724 101.519H418.249C419.462 105.112 420.766 108.887 421.979 112.419ZM400.21 97.1952C400.27 97.0734 400.3 96.9211 400.361 96.7993L408.305 73.9631H408.82L416.703 96.982C416.733 97.0429 416.764 97.1343 416.764 97.1952H400.21Z" fill="white"/>
<path d="M433.041 112.419H447.109C463.694 112.419 469.758 102.798 469.758 90.5574C469.758 76.9166 462.208 69 448.959 69C443.471 69 438.347 69 433.041 69V112.419ZM440.166 106.573V74.8461H447.715C457.872 74.8461 462.329 81.0271 462.329 90.4356C462.329 99.6615 458.388 106.573 447.139 106.573H440.166Z" fill="white"/>
<path d="M499.431 99.8442L495.217 93.9981C502.038 92.3234 504.737 87.2994 504.737 81.2707C504.737 72.1362 499.219 69 488.88 69C482.725 69 476.722 69 472.962 69V112.419H481.27V96.1904H487.607L492.033 102.676C494.125 105.751 496.308 108.918 498.703 112.419H508.406C505.98 109.07 502.281 103.863 499.431 99.8442ZM481.27 75.8204H488.607C492.063 75.8204 495.975 76.6121 495.975 82.2755C495.975 87.7257 493.064 89.5831 487.334 89.5831H481.27V75.8204Z" fill="white"/>
<path d="M510.321 112.419H518.993V69H510.321V112.419Z" fill="white"/>
<path d="M525.071 112.419H540.048C556.966 112.419 563 102.859 563 90.5574C563 76.8252 555.42 69 542.262 69C536.167 69 530.164 69 525.071 69V112.419ZM535.046 104.411V77.0079H540.533C548.932 77.0079 552.6 82.3668 552.6 90.4356C552.6 98.4435 549.326 104.411 540.018 104.411H535.046Z" fill="white"/>
<path d="M309.262 162C322.136 162 329.144 153.381 329.144 141.788C329.144 130.605 322.489 121.576 309.018 121.576C295.736 121.576 289 130.495 289 141.843C289 152.535 295.247 162 309.262 162ZM309.126 154.608C301.901 154.608 298.316 148.689 298.316 141.788C298.316 134.86 302.092 128.968 309.126 128.968C315.917 128.968 319.828 134.614 319.828 141.788C319.828 148.607 316.297 154.608 309.126 154.608Z" fill="white"/>
<path d="M350.327 122.367C343.7 122.367 338.485 122.367 335.416 122.367V161.264H342.912V146.998H350.245C360.485 146.998 364.179 141.761 364.179 134.26C364.179 125.613 359.534 122.367 350.327 122.367ZM348.589 140.97H342.912V128.477H349.811C352.88 128.477 356.438 129.295 356.438 134.341C356.438 139.06 354.048 140.97 348.589 140.97Z" fill="white"/>
<path d="M376.869 155.863V144.188H394.279V138.979H376.869V127.768H395.284V122.367H370.622V161.264H395.42V155.863H376.869Z" fill="white"/>
<path d="M402.902 161.264H408.905V133.196H409.394L417.108 144.188C421.725 150.817 425.5 156.19 429.031 161.264H434.599V122.367H428.597V150.298H428.081L420.448 139.388C416.619 133.932 412.843 128.45 408.552 122.367H402.902V161.264Z" fill="white"/>
<path d="M461.784 161.864C465.966 161.864 470.339 160.991 473.408 159.027L473.028 154.335C469.687 156.736 465.912 157.608 462.245 157.608C452.196 157.608 447.035 150.462 447.035 141.788C447.035 132.05 453.065 126.022 461.458 126.022C465.097 126.022 469.008 127.031 473.218 129.541L473.653 124.795C470.937 123.322 466.184 121.658 461.05 121.658C449.643 121.658 441.929 129.977 441.929 141.761C441.929 153.326 449.507 161.864 461.784 161.864Z" fill="white"/>
<path d="M481.506 161.264H486.504V122.367H481.506V161.264Z" fill="white"/>
<path d="M524.545 122.367H493.337V125.831H507.054V161.264H510.856V125.831H524.545V122.367Z" fill="white"/>
<path d="M559.808 122.367H555.49C552.285 127.713 550.682 130.441 548.048 134.832L544.082 141.461H543.648L539.546 134.587C537.075 130.386 535.554 127.768 532.321 122.367H527.921C530.149 125.968 531.67 128.504 533.462 131.505L541.936 145.47V161.264H545.766V145.47L554.268 131.505C556.033 128.586 557.907 125.477 559.808 122.367Z" fill="white"/>
<defs>
<linearGradient id="paint0_linear" x1="0" y1="112.122" x2="1572" y2="112.123" gradientUnits="userSpaceOnUse">
<stop stop-color="#9115CB"/>
<stop offset="1" stop-color="#3465FF"/>
</linearGradient>
</defs>
</svg>
