<svg width="197" height="118" viewBox="0 0 197 118" fill="none" xmlns="http://www.w3.org/2000/svg">
<path d="M12.0915 0.0918837L8.19101 31.626H0L3.93949 0.052857L12.0915 0.0918837ZM17.4742 0.052857L13.5347 31.626H19.2294L23.1299 0.0918837L17.4742 0.052857ZM28.0445 0.052857L24.105 31.626H27.3424L31.2429 0.0918837L28.0445 0.052857Z" fill="white"/>
<path d="M31.9339 31.5504H40.3146C40.7546 27.7891 41.1725 24.3818 41.5245 21.4171L42.3163 15.0451H42.9102L45.3299 21.9038C46.4737 25.1562 47.7275 28.6077 48.7614 31.5504H54.7225C55.6244 28.5856 56.6142 25.2447 57.6041 21.8817L59.6278 15.0451H60.2217L61.0135 21.4171C61.3655 24.3818 61.7834 27.7891 62.2454 31.5504H70.8681C70.4721 28.2537 70.0762 25.1784 69.5703 21.3507L68.1845 10.6643C67.7005 6.7924 67.2826 3.47364 66.7987 0H57.78C56.6582 3.27451 55.7343 5.8189 54.7445 8.60666L51.8629 16.7708H51.291L48.2115 8.60666C47.1556 5.8189 46.1878 3.16389 44.9999 0H35.8493C35.4094 3.51789 35.0134 6.85878 34.5295 10.6643L33.2097 21.3507C32.7258 25.1562 32.3298 28.3865 31.9339 31.5504Z" fill="white"/>
<path d="M94.8136 31.5504H102.292C101.215 28.1874 99.9828 24.3818 98.839 20.8861L95.3415 10.0227C94.0877 6.19503 93.1418 3.29664 92.086 0H82.7594L79.5038 10.0227L75.9624 20.864L72.4869 31.5504H79.7458L81.6595 24.9571H92.9438C93.5597 27.1254 94.2197 29.4042 94.8136 31.5504ZM87.6206 6.1729L91.4041 19.5143H83.2213L87.0927 6.1729H87.6206Z" fill="white"/>
<path d="M105.801 31.5504H116.007C128.04 31.5504 132.439 24.5588 132.439 15.6646C132.439 5.75253 126.962 0 117.349 0C113.368 0 109.65 0 105.801 0V31.5504ZM110.97 27.3024V4.24802H116.447C123.816 4.24802 127.05 8.73941 127.05 15.5761C127.05 22.28 124.19 27.3024 116.029 27.3024H110.97Z" fill="white"/>
<path d="M152.361 22.5233L148.644 17.8549C154.671 17.0142 156.783 13.1202 156.783 8.54028C156.783 2.36739 153.197 0 146.026 0C141.649 0 137.932 0 135.424 0V31.5504H139.317V18.74H144.905L149.018 24.0721C150.888 26.4395 152.779 28.8954 154.869 31.5504H159.532C157.575 29.1166 154.649 25.3996 152.361 22.5233ZM139.317 3.31877H145.894C148.864 3.31877 152.669 3.67276 152.669 8.93854C152.669 13.6733 150.096 15.4433 144.597 15.4433H139.317V3.31877Z" fill="white"/>
<path d="M162.367 31.5504H164.588V0H162.367V31.5504Z" fill="white"/>
<path d="M171.616 31.5504H180.898C192.601 31.5504 197 24.5367 197 15.6203C197 5.86315 191.567 0 181.822 0C178.501 0 175.707 0 171.616 0V31.5504ZM173.815 29.5812V1.96914H181.47C190.621 1.96914 194.712 7.32341 194.712 15.5761C194.712 23.5632 191.127 29.5812 180.92 29.5812H173.815Z" fill="white"/>
<path d="M14.5732 75.4437C23.1038 75.4437 28.265 69.2729 28.265 61.0255C28.265 53.0132 23.3375 46.6073 14.4563 46.6073C5.73096 46.6073 0.589229 52.9153 0.589229 61.0255C0.589229 68.8223 5.28301 75.4437 14.5732 75.4437ZM14.4758 72.9754C6.86058 72.9754 3.43276 67.3531 3.43276 61.0255C3.43276 54.7372 7.01639 49.0561 14.4758 49.0561C21.7015 49.0561 25.4215 54.3454 25.4215 61.0255C25.4215 67.2355 22.091 72.9754 14.4758 72.9754Z" fill="white"/>
<path d="M43.6467 47.0971C39.5177 47.0971 36.2652 47.0971 34.1812 47.0971V75.0323H36.8884V63.533H42.6339C50.3855 63.533 52.8005 59.8697 52.8005 54.8743C52.8005 49.585 49.8596 47.0971 43.6467 47.0971ZM42.186 61.2214H36.8884V49.4479H43.4714C46.2954 49.4479 50.0154 49.8789 50.0154 54.8939C50.0154 59.4192 47.6198 61.2214 42.186 61.2214Z" fill="white"/>
<path d="M61.588 71.9959V62.3576H74.6176V59.3996H61.588V50.1335H75.3966V47.0971H58.1407V75.0323H75.4356V71.9959H61.588Z" fill="white"/>
<path d="M81.2307 75.0323H84.5806V53.1308H84.8533L90.9104 61.7504C94.5525 66.9221 97.5128 71.0947 100.259 75.0323H103.395V47.0971H100.045V68.8811H99.7526L93.7344 60.3399C90.7351 56.0889 87.7358 51.7987 84.4053 47.0971H81.2307V75.0323Z" fill="white"/>
<path d="M123.159 75.5025C126.198 75.5025 129.392 74.8952 131.612 73.5435L131.301 69.2337C128.885 70.9968 126.237 71.6237 123.666 71.6237C116.927 71.6237 113.538 66.8241 113.538 61.0451C113.538 54.4825 117.531 50.5449 123.082 50.5449C125.594 50.5449 128.379 51.2893 131.378 53.1308L131.768 48.7818C129.742 47.6848 126.276 46.5682 122.653 46.5682C114.22 46.5682 108.766 52.6019 108.766 61.0451C108.766 69.4688 114.259 75.5025 123.159 75.5025Z" fill="white"/>
<path d="M137.029 75.0323H141.684V47.0971H137.029V75.0323Z" fill="white"/>
<path d="M169.086 47.0971H146.143V51.8966H154.907V75.0323H160.341V51.8966H169.086V47.0971Z" fill="white"/>
<path d="M195.439 47.0971H189.421C187.766 50.4666 186.928 52.1513 185.565 54.9135L183.52 59.0861H183.033L180.949 54.7959C179.683 52.1317 178.904 50.5057 177.229 47.0971H171.036C172.555 49.8201 173.587 51.7595 174.834 54.0515L180.54 64.6105V75.0323H186.013V64.5713L191.681 54.0515L195.439 47.0971Z" fill="white"/>
<path d="M8.77146 111.562C8.24094 111.991 7.4913 112.188 6.89158 112.188C5.35769 112.188 4.63111 111.33 4.63111 109.578V103.001H8.79453V101.794H4.63111V97.7111L3.15489 98.0707V101.794H0.859821V103.001H3.15489V109.868C3.15489 112.339 4.35432 113.534 6.56866 113.534C7.54896 113.534 8.48313 113.267 8.93292 112.931L8.77146 111.562Z" fill="white"/>
<path d="M11.7643 113.29H13.252V105.506C14.1401 104.114 15.3395 102.978 17.0464 102.978C18.9032 102.978 19.5029 104.01 19.5029 105.982V113.29H20.9907C20.9907 111.573 20.9907 110.007 20.9907 108.198V105.657C20.9907 102.989 19.9527 101.539 17.4846 101.539C15.4664 101.539 14.1285 102.815 13.4366 103.801H13.252V96.0986L11.7643 96.319V113.29Z" fill="white"/>
<path d="M33.8566 106.434C33.8566 103.291 32.1036 101.539 29.278 101.539C26.0603 101.539 24.0536 104.01 24.0536 107.467C24.0536 110.97 25.945 113.522 29.9585 113.522C31.4232 113.522 32.761 113.221 33.6375 112.722L33.5568 111.318C32.4842 111.921 31.204 112.177 30.0738 112.177C27.1329 112.177 25.6913 110.529 25.5759 107.873H33.7644C33.8336 107.421 33.8566 106.991 33.8566 106.434ZM29.3011 102.804C31.204 102.804 32.4842 104.01 32.4842 106.411C32.4842 106.504 32.4842 106.597 32.4727 106.69L25.5875 106.736C25.7835 104.416 27.1329 102.804 29.3011 102.804Z" fill="white"/>
<path d="M51.4156 101.76H47.8519C46.5718 101.76 46.0643 101.516 44.9687 101.516C42.2354 101.516 40.4939 103.036 40.4939 105.274C40.4939 107.595 42.3046 108.627 43.0081 108.894V109.068C42.0508 109.462 41.578 110.077 41.578 110.901C41.578 111.968 42.3853 112.455 42.7659 112.571V112.733C41.9932 112.965 40.6092 113.719 40.6092 115.286C40.6092 116.608 41.6011 118 45.0148 118C47.7135 118 50.839 116.736 50.839 114.056C50.839 112.119 49.4204 111.434 46.2373 111.434H45.7414C44.046 111.434 43.3656 111.237 43.3656 110.564C43.3656 109.938 44.1037 109.706 45.7299 109.323C47.9788 108.813 49.455 107.687 49.455 105.402C49.455 104.567 49.2359 103.801 48.74 103.198H51.4156V101.76ZM44.8418 107.966C43.5501 107.78 42.2815 106.945 42.2815 105.414C42.2815 103.882 43.5617 103.14 44.9687 103.14C46.1451 103.14 47.6674 103.836 47.6674 105.518C47.6674 107.293 45.9836 107.769 44.8418 107.966ZM45.3839 113.035H45.8106C48.4286 113.035 49.0168 113.464 49.0168 114.346C49.0168 115.17 47.7251 116.446 45.1763 116.446C43.0888 116.446 42.3738 115.692 42.3738 114.88C42.3738 113.789 43.9192 113.07 45.3839 113.035Z" fill="white"/>
<path d="M56.3674 113.522C58.0513 113.522 59.366 112.594 60.0695 111.655H60.2541L60.3579 113.29H62.0878V105.472C62.0878 102.676 60.5193 101.516 57.959 101.516C56.2867 101.516 54.5452 101.957 53.4265 102.421L53.5303 104.172C55.168 103.465 56.4828 103.175 57.5438 103.175C59.1008 103.175 60.3348 103.627 60.2425 105.959L56.6558 106.585C54.9143 106.875 52.9306 107.676 52.9306 110.193C52.9306 112.281 54.3146 113.522 56.3674 113.522ZM56.921 111.945C55.7793 111.945 54.8681 111.446 54.8681 110.112C54.8681 108.824 55.8023 108.175 57.1286 107.943C59.2853 107.548 59.8389 107.374 60.2079 107.165L60.1964 109.648C59.4467 111.167 58.1435 111.945 56.921 111.945Z" fill="white"/>
<path d="M72.3969 111.272C71.8663 111.689 71.1398 111.875 70.5631 111.875C69.0984 111.875 68.4295 111.051 68.4295 109.381V103.291H72.443V101.783H68.4295V97.6299L66.5496 98.0475V101.783H64.3468V103.291H66.5496V109.833C66.5496 112.374 67.8183 113.545 70.1018 113.545C71.1052 113.545 72.0855 113.302 72.5583 112.954L72.3969 111.272Z" fill="white"/>
<path d="M84.18 106.458C84.18 103.244 82.4039 101.516 79.5091 101.516C76.1992 101.516 74.2155 103.987 74.2155 107.467C74.2155 110.993 76.1069 113.545 80.2126 113.545C81.7465 113.545 83.0844 113.221 83.9609 112.745L83.8801 111.017C82.8076 111.608 81.4813 111.863 80.3972 111.863C77.6523 111.863 76.2799 110.367 76.153 107.919H84.0877C84.1569 107.467 84.18 107.026 84.18 106.458ZM79.5322 103.047C81.2621 103.047 82.45 104.207 82.45 106.388V106.469L76.1761 106.527C76.4067 104.462 77.6408 103.047 79.5322 103.047Z" fill="white"/>
<path d="M98.3944 110.889C97.8524 111.295 97.1604 111.481 96.6183 111.481C95.269 111.481 94.6693 110.68 94.6693 109.103V103.662H98.4751V101.76H94.6693V97.5255L92.2358 98.0127V101.76H90.1483V103.662H92.2358V109.787C92.2358 112.432 93.5852 113.569 95.961 113.569C96.9989 113.569 98.0484 113.337 98.5674 112.977L98.3944 110.889Z" fill="white"/>
<path d="M105.999 113.569C109.632 113.569 111.812 110.912 111.812 107.467C111.812 104.08 109.748 101.47 105.953 101.47C102.251 101.47 100.083 104.01 100.083 107.467C100.083 110.692 102.067 113.569 105.999 113.569ZM105.988 111.481C103.727 111.481 102.597 109.543 102.597 107.467C102.597 105.274 103.773 103.558 105.976 103.558C107.995 103.558 109.298 105.077 109.298 107.467C109.298 109.543 108.214 111.481 105.988 111.481Z" fill="white"/>
<path d="M122.205 110.587V106.214H129.332V103.65H122.205V99.4511H129.724V96.7482H119.045V113.29H129.805V110.587H122.205Z" fill="white"/>
<path d="M135.853 113.58C137.699 113.58 138.979 112.478 139.74 111.376H140.005L140.121 113.29H142.612V101.736H139.682V109.149C139.037 110.135 138.183 110.924 137.053 110.924C135.715 110.924 135.277 110.147 135.277 108.627V101.644L132.347 101.736C132.347 103.407 132.347 104.764 132.347 106.98V109.474C132.347 112.177 133.512 113.58 135.853 113.58Z" fill="white"/>
<path d="M145.643 113.29H148.572V106.69C149.23 104.729 150.383 104.416 151.248 104.416C151.79 104.416 152.194 104.462 152.759 104.532L153.024 101.644C152.632 101.493 152.17 101.435 151.801 101.435C150.763 101.435 149.414 101.829 148.503 103.79H148.249L148.134 101.586L145.643 101.736V113.29Z" fill="white"/>
<path d="M160.06 113.58C163.797 113.58 165.977 110.935 165.977 107.467C165.977 104.068 163.935 101.435 160.003 101.435C156.174 101.435 154.04 104.01 154.04 107.467C154.04 110.692 156.001 113.58 160.06 113.58ZM160.049 111.144C158.042 111.144 157.027 109.369 157.027 107.467C157.027 105.448 158.077 103.871 160.037 103.871C161.825 103.871 162.99 105.251 162.99 107.467C162.99 109.369 162.032 111.144 160.049 111.144Z" fill="white"/>
<path d="M168.506 117.838L171.435 117.745V111.968H171.631C172.416 112.977 173.465 113.58 174.907 113.58C178.102 113.58 179.612 110.715 179.612 107.49C179.612 104.056 177.952 101.435 174.872 101.435C173.327 101.435 172.139 102.119 171.459 103.14H171.205L171.124 101.586L168.506 101.736V117.838ZM173.846 111.04C172.727 111.04 171.954 110.471 171.435 109.555V105.228C171.989 104.428 172.877 103.998 173.823 103.998C175.714 103.998 176.614 105.599 176.614 107.513C176.614 109.335 175.76 111.04 173.846 111.04Z" fill="white"/>
<path d="M191.844 106.504C191.844 103.128 190.01 101.446 186.954 101.446C183.402 101.446 181.476 103.929 181.476 107.467C181.476 111.028 183.39 113.58 187.727 113.58C189.399 113.58 190.76 113.255 191.637 112.815L191.544 110.286C190.46 110.866 189.03 111.121 188.061 111.121C185.755 111.121 184.578 109.973 184.417 108.024H191.752C191.821 107.56 191.844 107.107 191.844 106.504ZM186.977 103.616C188.246 103.616 189.145 104.532 189.238 106.063L184.475 106.144C184.74 104.613 185.697 103.616 186.977 103.616Z" fill="white"/>
</svg>
