<svg width="494" height="185" viewBox="0 0 494 185" fill="none" xmlns="http://www.w3.org/2000/svg">
<rect width="494" height="185" fill="url(#paint0_linear)"/>
<rect width="494" height="185" fill="url(#paint1_linear)"/>
<path d="M143.424 49.0468L138.771 86.8458H129L133.699 49L143.424 49.0468ZM149.845 49L145.145 86.8458H151.939L156.591 49.0468L149.845 49ZM162.454 49L157.755 86.8458H161.617L166.269 49.0468L162.454 49Z" fill="white"/>
<path d="M167.094 87.0532H177.091C177.616 82.5447 178.114 78.4605 178.534 74.9068L179.479 67.2688H180.187L183.074 75.4902C184.438 79.3888 185.934 83.526 187.167 87.0532H194.278C195.354 83.4995 196.535 79.4948 197.716 75.4637L200.13 67.2688H200.838L201.783 74.9068C202.203 78.4605 202.701 82.5447 203.252 87.0532H213.538C213.066 83.1017 212.593 79.4153 211.99 74.8272L210.337 62.0177C209.76 57.3766 209.261 53.3985 208.684 49.2347H197.925C196.587 53.1598 195.485 56.2096 194.304 59.5513L190.867 69.3374H190.185L186.511 59.5513C185.252 56.2096 184.097 53.0272 182.68 49.2347H171.764C171.24 53.4515 170.767 57.4561 170.19 62.0177L168.616 74.8272C168.038 79.3888 167.566 83.2608 167.094 87.0532Z" fill="white"/>
<path d="M242.103 87.0532H251.024C249.738 83.0221 248.269 78.4605 246.904 74.2703L242.732 61.2486C241.237 56.6605 240.108 53.1863 238.849 49.2347H227.723L223.84 61.2486L219.615 74.2437L215.469 87.0532H224.128L226.411 79.1501H239.872C240.607 81.7491 241.394 84.4807 242.103 87.0532ZM233.522 56.634L238.035 72.626H228.274L232.892 56.634H233.522Z" fill="white"/>
<path d="M255.209 87.0532H267.384C281.738 87.0532 286.986 78.6727 286.986 68.0114C286.986 56.1301 280.452 49.2347 268.985 49.2347C264.236 49.2347 259.801 49.2347 255.209 49.2347V87.0532ZM261.376 81.9613V54.3267H267.909C276.7 54.3267 280.557 59.7104 280.557 67.9053C280.557 75.9411 277.146 81.9613 267.411 81.9613H261.376Z" fill="white"/>
<path d="M310.751 76.2328L306.316 70.6369C313.506 69.6291 316.025 64.9615 316.025 59.4717C316.025 52.0724 311.748 49.2347 303.194 49.2347C297.972 49.2347 293.538 49.2347 290.546 49.2347V87.0532H295.191V71.6977H301.856L306.763 78.0892C308.993 80.927 311.25 83.8708 313.742 87.0532H319.305C316.97 84.136 313.48 79.6805 310.751 76.2328ZM295.191 53.2128H303.036C306.579 53.2128 311.118 53.6371 311.118 59.9491C311.118 65.6245 308.048 67.7462 301.488 67.7462H295.191V53.2128Z" fill="white"/>
<path d="M322.686 87.0532H325.336V49.2347H322.686V87.0532Z" fill="white"/>
<path d="M333.719 87.0532H344.793C358.752 87.0532 364 78.6462 364 67.9583C364 56.2627 357.519 49.2347 345.895 49.2347C341.932 49.2347 338.6 49.2347 333.719 49.2347V87.0532ZM336.343 84.6929V51.595H345.475C356.39 51.595 361.271 58.0131 361.271 67.9053C361.271 77.4793 356.994 84.6929 344.819 84.6929H336.343Z" fill="white"/>
<path d="M136.275 127.729V115.773H151.341V113.143H136.275V101.65H152.26V98.932H133.258V130.447H152.282V127.729H136.275Z" fill="white"/>
<path d="M158.001 130.447H160.997C161.696 124.547 162.33 119.176 162.899 114.557L164.08 104.612H164.32L168.694 115.419C170.727 120.458 173.089 126.204 174.816 130.447H176.937C178.774 125.939 180.939 120.546 182.994 115.353L187.28 104.612H187.521L188.723 114.557C189.27 119.176 189.904 124.547 190.626 130.447H193.556C193.162 126.933 192.768 123.817 192.331 119.994L191.063 109.54C190.582 105.673 190.21 102.534 189.773 98.932H186.69L175.997 125.32H175.735L170.465 112.369C168.65 107.993 166.9 103.662 164.976 98.932H161.893C161.456 102.579 161.062 105.739 160.581 109.54L159.291 119.994C158.81 123.839 158.416 127.022 158.001 130.447Z" fill="white"/>
<path d="M211.751 98.932C206.918 98.932 203.114 98.932 200.73 98.932V130.447H204.622V117.894H210.92C219.492 117.894 222.291 113.717 222.291 107.949C222.291 101.695 218.858 98.932 211.751 98.932ZM210.177 114.579H204.622V102.247H211.489C214.462 102.247 218.245 102.778 218.245 107.971C218.245 112.701 215.774 114.579 210.177 114.579Z" fill="white"/>
<path d="M244.986 121.43L241.29 116.767C247.282 115.927 249.381 112.038 249.381 107.463C249.381 101.297 245.817 98.932 238.688 98.932C234.337 98.932 230.641 98.932 228.149 98.932V130.447H232.019V117.651H237.573L241.662 122.977C243.521 125.342 245.401 127.795 247.479 130.447H252.114C250.168 128.016 247.26 124.304 244.986 121.43ZM232.019 102.247H238.557C241.509 102.247 245.292 102.601 245.292 107.861C245.292 112.59 242.734 114.358 237.267 114.358H232.019V102.247Z" fill="white"/>
<path d="M262.104 126.072V116.613H276.12V112.391H262.104V103.308H276.929V98.932H257.075V130.447H277.039V126.072H262.104Z" fill="white"/>
<path d="M292.422 130.956C300.228 130.956 303.639 127.11 303.639 121.74C303.639 116.767 301.234 114.646 293.756 112.281C288.989 110.778 286.955 109.651 286.955 106.977C286.955 104.081 289.645 102.711 292.837 102.711C295.308 102.711 298.632 103.662 301.321 105.474L301.781 100.656C299.703 99.4846 295.789 98.3353 292.028 98.3353C285.053 98.3353 281.532 102.048 281.532 107.198C281.532 112.48 284.922 114.535 290.782 116.347C295.483 117.784 298.26 119.021 298.26 122.049C298.26 125.254 295.636 126.602 292.072 126.602C288.77 126.602 285.403 125.541 282.407 123.839L281.991 128.679C284.112 129.74 288.529 130.956 292.422 130.956Z" fill="white"/>
<path d="M328.93 130.447H335.249L331.707 119.795L328.121 108.944L324.775 98.932H316.86L313.492 108.944L309.862 119.773C308.747 123.154 307.435 127.066 306.298 130.447H312.442L314.607 123.419H326.787C327.508 125.74 328.23 128.171 328.93 130.447ZM320.511 104.258H320.992L325.366 118.734H316.05L320.511 104.258Z" fill="white"/>
<path d="M349.265 131C357.355 131 360.854 127.154 360.854 121.585C360.854 116.458 358.427 114.336 350.97 112.016C346.597 110.667 344.673 109.607 344.673 107.198C344.673 104.678 347.1 103.463 350.03 103.463C352.457 103.463 355.781 104.413 358.514 106.203L359.017 100.59C356.831 99.4404 352.785 98.3132 348.959 98.3132C341.787 98.3132 338.222 102.092 338.222 107.419C338.222 112.855 341.568 114.955 347.363 116.701C351.78 118.005 354.425 119.154 354.425 121.917C354.425 124.679 352.129 125.895 348.828 125.895C345.657 125.895 342.202 124.856 339.184 123.132L338.725 128.746C340.89 129.807 345.373 131 349.265 131Z" fill="white"/>
<defs>
<linearGradient id="paint0_linear" x1="2.76829e-06" y1="93.4737" x2="494" y2="93.4737" gradientUnits="userSpaceOnUse">
<stop offset="0.0260417" stop-color="#3465FF"/>
<stop offset="1" stop-color="#26CBE1"/>
</linearGradient>
<linearGradient id="paint1_linear" x1="2.76829e-06" y1="93.4737" x2="494" y2="93.4737" gradientUnits="userSpaceOnUse">
<stop offset="0.0260417" stop-color="#3465FF"/>
<stop offset="1" stop-color="#26CBE1"/>
</linearGradient>
</defs>
</svg>
