<svg width="1572" height="224" viewBox="0 0 1572 224" fill="none" xmlns="http://www.w3.org/2000/svg">
<path d="M0 0H1572V224H0V0Z" fill="url(#paint0_linear)"/>
<path d="M307.161 71.1265L301.759 114.548H290.414L295.871 71.0728L307.161 71.1265ZM314.616 71.0728L309.16 114.548H317.047L322.45 71.1265L314.616 71.0728ZM329.256 71.0728L323.8 114.548H328.284L333.686 71.1265L329.256 71.0728Z" fill="white"/>
<path d="M334.855 114.444H346.462C347.072 109.265 347.651 104.573 348.138 100.491L349.235 91.7168H350.057L353.409 101.161C354.993 105.64 356.729 110.392 358.161 114.444H366.417C367.667 110.362 369.038 105.762 370.409 101.131L373.211 91.7168H374.034L375.131 100.491C375.618 104.573 376.197 109.265 376.837 114.444H388.779C388.231 109.905 387.683 105.67 386.982 100.4L385.063 85.6845C384.392 80.353 383.813 75.7831 383.143 71H370.652C369.098 75.5089 367.819 79.0125 366.448 82.8512L362.457 94.0931H361.665L357.4 82.8512C355.937 79.0125 354.597 75.3566 352.952 71H340.278C339.668 75.8441 339.12 80.4444 338.45 85.6845L336.622 100.4C335.952 105.64 335.403 110.088 334.855 114.444Z" fill="white"/>
<path d="M421.944 114.444H432.303C430.81 109.813 429.104 104.573 427.52 99.7598L422.676 84.801C420.939 79.5304 419.629 75.5394 418.167 71H405.249L400.74 84.801L395.835 99.7293L391.022 114.444H401.075L403.726 105.365H419.355C420.208 108.351 421.122 111.489 421.944 114.444ZM411.982 79.5L417.222 97.8709H405.889L411.251 79.5H411.982Z" fill="white"/>
<path d="M437.162 114.444H451.298C467.963 114.444 474.056 104.817 474.056 92.5698C474.056 78.9211 466.47 71 453.157 71C447.642 71 442.494 71 437.162 71V114.444ZM444.321 108.595V76.8494H451.907C462.114 76.8494 466.592 83.034 466.592 92.4479C466.592 101.679 462.631 108.595 451.329 108.595H444.321Z" fill="white"/>
<path d="M501.649 102.014L496.5 95.5859C504.848 94.4282 507.773 89.0662 507.773 82.7598C507.773 74.2598 502.807 71 492.875 71C486.812 71 481.664 71 478.19 71V114.444H483.583V96.8046H491.321L497.018 104.147C499.608 107.407 502.228 110.788 505.122 114.444H511.581C508.87 111.093 504.818 105.975 501.649 102.014ZM483.583 75.5699H492.692C496.805 75.5699 502.076 76.0573 502.076 83.3082C502.076 89.8279 498.511 92.2652 490.895 92.2652H483.583V75.5699Z" fill="white"/>
<path d="M515.506 114.444H518.583V71H515.506V114.444Z" fill="white"/>
<path d="M528.317 114.444H541.173C557.381 114.444 563.474 104.787 563.474 92.5089C563.474 79.0735 555.949 71 542.453 71C537.853 71 533.983 71 528.317 71V114.444ZM531.363 111.733V73.7115H541.965C554.639 73.7115 560.306 81.0842 560.306 92.4479C560.306 103.446 555.34 111.733 541.204 111.733H531.363Z" fill="white"/>
<path d="M308.52 163.676C320.428 163.676 327.632 155.112 327.632 143.667C327.632 132.547 320.754 123.657 308.357 123.657C296.177 123.657 289 132.411 289 143.667C289 154.487 295.552 163.676 308.52 163.676ZM308.384 160.25C297.754 160.25 292.969 152.448 292.969 143.667C292.969 134.94 297.972 127.056 308.384 127.056C318.47 127.056 323.663 134.396 323.663 143.667C323.663 152.285 319.014 160.25 308.384 160.25Z" fill="white"/>
<path d="M349.103 124.337C343.339 124.337 338.799 124.337 335.89 124.337V163.105H339.669V147.147H347.689C358.51 147.147 361.881 142.063 361.881 135.13C361.881 127.79 357.776 124.337 349.103 124.337ZM347.064 143.938H339.669V127.599H348.858C352.8 127.599 357.993 128.197 357.993 135.157C357.993 141.437 354.649 143.938 347.064 143.938Z" fill="white"/>
<path d="M374.147 158.891V145.515H392.335V141.41H374.147V128.551H393.422V124.337H369.335V163.105H393.477V158.891H374.147Z" fill="white"/>
<path d="M401.566 163.105H406.242V132.71H406.623L415.078 144.673C420.161 151.85 424.294 157.641 428.127 163.105H432.504V124.337H427.828V154.568H427.42L419.02 142.715C414.833 136.816 410.646 130.862 405.997 124.337H401.566V163.105Z" fill="white"/>
<path d="M460.093 163.757C464.334 163.757 468.793 162.915 471.892 161.039L471.457 155.058C468.086 157.505 464.389 158.375 460.8 158.375C451.394 158.375 446.663 151.714 446.663 143.694C446.663 134.586 452.236 129.122 459.985 129.122C463.492 129.122 467.379 130.155 471.566 132.71L472.11 126.675C469.282 125.153 464.443 123.603 459.386 123.603C447.615 123.603 440.002 131.976 440.002 143.694C440.002 155.384 447.669 163.757 460.093 163.757Z" fill="white"/>
<path d="M479.454 163.105H485.951V124.337H479.454V163.105Z" fill="white"/>
<path d="M524.201 124.337H492.176V130.998H504.409V163.105H511.995V130.998H524.201V124.337Z" fill="white"/>
<path d="M561.64 124.337H551.771C549.787 128.768 548.781 130.998 547.122 134.641L544.648 140.105H543.914L541.413 134.505C539.891 130.971 538.966 128.823 536.955 124.337H526.787C528.88 128.197 530.267 130.943 532.007 134.206L539.809 149.077V163.105H548.781V148.968L556.502 134.206C558.133 131.025 559.9 127.654 561.64 124.337Z" fill="white"/>
<path d="M1019.53 58.2531L1010.38 131.719H991.177L1000.41 58.1622L1019.53 58.2531ZM1032.15 58.1622L1022.91 131.719H1036.27L1045.41 58.2531L1032.15 58.1622ZM1056.94 58.1622L1047.7 131.719H1055.29L1064.44 58.2531L1056.94 58.1622Z" fill="white"/>
<path d="M1066.53 131.719H1086.23C1087.26 122.931 1088.25 114.969 1089.07 108.042L1090.93 93.1535H1092.33L1098.02 109.179C1100.7 116.779 1103.65 124.843 1106.08 131.719H1120.09C1122.21 124.792 1124.54 116.985 1126.86 109.128L1131.62 93.1535H1133.01L1134.88 108.042C1135.7 114.969 1136.69 122.931 1137.77 131.719H1158.04C1157.11 124.016 1156.17 116.83 1154.99 107.887L1151.73 82.9176C1150.59 73.8708 1149.61 66.1163 1148.47 58H1127.28C1124.64 65.6511 1122.47 71.5961 1120.14 78.1099L1113.37 97.1858H1112.03L1104.79 78.1099C1102.31 71.5961 1100.03 65.3926 1097.24 58H1075.74C1074.7 66.2197 1073.77 74.0259 1072.63 82.9176L1069.53 107.887C1068.39 116.779 1067.46 124.326 1066.53 131.719Z" fill="white"/>
<path d="M1000.25 166.492C1007.72 166.492 1012.24 161.118 1012.24 153.936C1012.24 146.959 1007.93 141.38 1000.15 141.38C992.504 141.38 988 146.873 988 153.936C988 160.726 992.111 166.492 1000.25 166.492ZM1000.16 164.343C993.493 164.343 990.491 159.446 990.491 153.936C990.491 148.46 993.63 143.513 1000.16 143.513C1006.49 143.513 1009.75 148.119 1009.75 153.936C1009.75 159.344 1006.83 164.343 1000.16 164.343Z" fill="white"/>
<path d="M1025.72 141.807C1022.1 141.807 1019.25 141.807 1017.42 141.807V166.134H1019.8V156.12H1024.83C1031.62 156.12 1033.73 152.93 1033.73 148.579C1033.73 143.973 1031.16 141.807 1025.72 141.807ZM1024.44 154.107H1019.8V143.854H1025.56C1028.04 143.854 1031.29 144.229 1031.29 148.596C1031.29 152.537 1029.2 154.107 1024.44 154.107Z" fill="white"/>
<path d="M1041.43 163.49V155.096H1052.84V152.52H1041.43V144.451H1053.53V141.807H1038.41V166.134H1053.56V163.49H1041.43Z" fill="white"/>
<path d="M1058.64 166.134H1061.57V147.061H1061.81L1067.11 154.567C1070.3 159.071 1072.9 162.705 1075.3 166.134H1078.05V141.807H1075.12V160.777H1074.86L1069.59 153.339C1066.96 149.637 1064.33 145.901 1061.42 141.807H1058.64V166.134Z" fill="white"/>
<path d="M1095.36 166.543C1098.02 166.543 1100.82 166.015 1102.77 164.837L1102.49 161.084C1100.38 162.62 1098.06 163.166 1095.81 163.166C1089.9 163.166 1086.94 158.986 1086.94 153.953C1086.94 148.238 1090.43 144.809 1095.29 144.809C1097.5 144.809 1099.93 145.457 1102.56 147.061L1102.9 143.274C1101.13 142.318 1098.09 141.346 1094.92 141.346C1087.53 141.346 1082.76 146.6 1082.76 153.953C1082.76 161.289 1087.57 166.543 1095.36 166.543Z" fill="white"/>
<path d="M1107.51 166.134H1111.59V141.807H1107.51V166.134Z" fill="white"/>
<path d="M1135.59 141.807H1115.49V145.986H1123.17V166.134H1127.93V145.986H1135.59V141.807Z" fill="white"/>
<path d="M1159.08 141.807H1152.89C1151.65 144.587 1151.01 145.986 1149.97 148.272L1148.42 151.701H1147.96L1146.39 148.187C1145.44 145.969 1144.86 144.622 1143.59 141.807H1137.21C1138.53 144.229 1139.4 145.952 1140.49 147.999L1145.39 157.331V166.134H1151.01V157.263L1155.86 147.999C1156.88 146.003 1157.99 143.888 1159.08 141.807Z" fill="white"/>
<defs>
<linearGradient id="paint0_linear" x1="0" y1="112.122" x2="1572" y2="112.123" gradientUnits="userSpaceOnUse">
<stop stop-color="#9115CB"/>
<stop offset="1" stop-color="#3465FF"/>
</linearGradient>
</defs>
</svg>
